<svg version="1.1" id="Слой_1" xmlns="http://www.w3.org/2000/svg" xmlns:xlink="http://www.w3.org/1999/xlink" x="0px" y="0px" viewBox="0 0 1000 445.2063293" enable-background="new 0 0 1000 445.2063293" xml:space="preserve" style="max-width: 100%; max-height: 100%; width: auto; height: auto; transform: scale(1);">
<g data-element-index="0" class="" fill="#000000" style="cursor: pointer; fill: rgb(0, 0, 0);">
	<polygon fill="#000000" points="550.9730225,54.3664246 520.3754883,46.1713715 520.3754883,439.7445679 500.0232849,445.2063293 
		479.6303711,439.7504272 479.6303711,46.1703377 448.9148865,54.4005775 448.9148865,13.6692266 499.9767151,0 
		550.9730225,13.6706066 	" data-element-index="1" style="cursor: pointer; fill: rgb(0, 0, 0);" class=""></polygon>
	<polygon fill="#000000" points="783.9190674,76.0450974 733.8490601,266.6394348 733.8490601,62.6718674 693.0135498,51.7300682 
		693.0135498,393.4862671 733.7600708,382.4389038 783.911499,204.3956909 783.9832153,369.1105042 824.6942139,358.2025146 
		824.6942139,87.0138092 	" data-element-index="2" style="cursor: pointer; fill: rgb(0, 0, 0);" class=""></polygon>
	<path fill="#000000" d="M672.6685791,337.8206482l-0.067627-291.7517395l-111.4512939-29.668808l0.0100098,412.4164429
		l40.7451172-10.9176331v-61.1170349L672.6685791,337.8206482z M632.0880127,76.1044388v232.0156555l-30.1832275,8.0874329
		V68.0170212L632.0880127,76.1044388z" data-element-index="3" style="cursor: pointer; fill: rgb(0, 0, 0);" class=""></path>
	<polygon fill="#000000" points="959.2113647,123.0392532 924.2522583,229.9495544 885.8812866,103.2672958 845.0291748,92.4627991 
		845.0291748,352.7538757 885.7747192,341.8362427 885.7747192,196.3117371 902.0806274,276.4476318 942.8257446,265.2674561 
		959.132019,205.3064575 959.132019,322.0515137 1000,311.2301025 999.8771973,133.954483 	" data-element-index="4" style="cursor: pointer; fill: rgb(0, 0, 0);" class="selected-element"></polygon>
	<polygon fill="#000000" points="287.0144348,57.0503845 246.2692719,68.0736008 204.9842377,241.3419037 164.7789764,89.7881546 
		124.033493,100.7209778 124.033493,344.4687805 164.7789764,355.3864441 164.7789764,203.50737 185.1515503,299.7263184 
		225.896698,310.7723083 246.2692719,195.7721863 246.2692719,377.1972351 287.0144348,388.1393738 	" data-element-index="5" style="cursor: pointer; fill: rgb(0, 0, 0);" class=""></polygon>
	<path fill="#000000" d="M438.7285767,16.3987255L307.3869934,51.591732V393.598053l131.3415833,35.1743774V16.3987255z
		 M348.1321411,363.8291931V81.4050903l49.8512878-13.3577118v309.1264038L348.1321411,363.8291931z" data-element-index="6" style="cursor: pointer; fill: rgb(0, 0, 0);" class=""></path>
	<polygon fill="#000000" points="103.6609192,106.1799774 0,133.9558716 0,311.2338867 103.6609192,339.0097961 
		103.6609192,257.6774902 62.9157944,246.7601929 62.9157944,287.3928833 40.7451477,281.4522705 40.7451477,163.7692261 
		62.9157944,157.8286285 62.9157944,198.4519958 103.6609192,187.5343475 	" data-element-index="7" style="cursor: pointer; fill: rgb(0, 0, 0);" class=""></polygon>
</g>
</svg>