<?xml version="1.0" encoding="UTF-8"?> <svg xmlns="http://www.w3.org/2000/svg" viewBox="0 0 100 100" fill-rule="evenodd"><path d="m19.828 64.891c0 4.1797 3.2383 7.6211 7.3516 7.9297 0.30859 4.1094 3.75 7.3516 7.9297 7.3516h37.102c4.3906 0 7.9609-3.5703 7.9609-7.9609v-37.109c0-4.1719-3.2383-7.6094-7.3516-7.9219-0.30859-4.1094-3.75-7.3516-7.9297-7.3516h-37.102c-4.3906 0-7.9609 3.5703-7.9609 7.9609zm56.344-29.789v37.109c0 2.1914-1.7812 3.9609-3.9609 3.9609h-37.102c-1.9609 0-3.6016-1.4297-3.8984-3.3203h33.68c4.3906 0 7.9609-3.5703 7.9609-7.9609v-33.68c1.8789 0.30078 3.3203 1.9297 3.3203 3.8906z" fill="#333333"></path></svg> 