<?xml version="1.0" encoding="UTF-8"?> <svg xmlns="http://www.w3.org/2000/svg" viewBox="0 0 100 100" fill-rule="evenodd"><path d="m98.797 90.766c-2.1367-2.4219-2.5742-2.8594-4.9961-5-1.125-0.92578-2.5781-1.3477-4.0195-1.1719l-2.8125-2.8125h-0.003906c3.6133-5.3477 4.3164-12.145 1.875-18.113-2.4453-5.9727-7.7109-10.328-14.031-11.609-6.3242-1.2812-12.871 0.68359-17.441 5.2344-4.5742 4.5508-6.5703 11.086-5.3203 17.418 1.25 6.3281 5.5781 11.613 11.539 14.086 5.957 2.4727 12.758 1.8008 18.121-1.7852l2.8828 2.8828c-0.14844 1.4062 0.27344 2.8125 1.1719 3.9062 2.1367 2.4219 2.5703 2.8594 4.9961 4.9961 2.0625 1.7578 5.375 1.5352 7.2422-0.32812l0.46094-0.46094c1.8711-1.8672 2.0977-5.1797 0.33594-7.2422zm-37.984-9.6016c-3.1641-3.1641-4.6758-7.6172-4.0898-12.055 0.58594-4.4336 3.1992-8.3438 7.0742-10.578 3.8711-2.2383 8.5664-2.543 12.699-0.83203 4.1328 1.7109 7.2344 5.25 8.3906 9.5703 1.1562 4.3203 0.23828 8.9336-2.4844 12.484-2.7227 3.5469-6.9414 5.6289-11.414 5.6289-3.8203 0.007813-7.4844-1.5117-10.176-4.2188z" fill="#333333"></path><path d="m70.984 60.121c-1.3516 0-2.4453 1.0938-2.4453 2.4492 0 1.3516 1.0938 2.4453 2.4453 2.4453 3.2969 0.007813 5.9648 2.6758 5.9688 5.9688 0 1.3555 1.0938 2.4492 2.4453 2.4492 1.3555 0 2.4492-1.0938 2.4492-2.4492-0.007812-5.9922-4.8672-10.855-10.863-10.863z" fill="#333333"></path><path d="m53.484 88.492c-4.1602-4.168-6.7031-9.6797-7.168-15.547-0.46484-5.8711 1.1758-11.715 4.6289-16.484 3.4531-4.7656 8.4922-8.1484 14.215-9.5391h-39.859c-1.5117 0-2.7344-1.2227-2.7344-2.7344s1.2227-2.7344 2.7344-2.7344h41.277c1.1797 0.003906 2.2227 0.76172 2.5898 1.8867 0.36719 1.1211-0.027344 2.3477-0.97656 3.0469v0.003906c0.92969-0.10547 1.8594-0.16016 2.793-0.15625v-0.003906c4.4844-0.007813 8.8867 1.207 12.727 3.5156-0.046876-10.172-0.44531-20.172-1.2109-27.305-0.69531-5.9766-6.2578-11.719-12.215-12.742l0.003906-5.0117c0-2.5898-2.1016-4.6875-4.6875-4.6875-2.5898 0-4.6875 2.0977-4.6875 4.6875v4.1641c-3.1094-0.19922-6.2188-0.33594-9.3242-0.40625v-3.7578c0-2.5898-2.0977-4.6875-4.6875-4.6875-2.5859 0-4.6875 2.0977-4.6875 4.6875v3.7578c-3.1055 0.070313-6.2148 0.20313-9.3281 0.40625l0.003906-4.1641c0-2.5898-2.0977-4.6875-4.6875-4.6875s-4.6875 2.0977-4.6875 4.6875v5.0078c-5.9375 1.0312-11.508 6.7656-12.203 12.746-0.8125 7.5859-1.2188 18.422-1.2188 29.258 0 10.836 0.40234 21.68 1.2148 29.258 0.71875 6.1836 6.6406 12.109 12.832 12.832h0.003906c12.879 1.3828 25.859 1.5859 38.773 0.61328-3.5547-1.2266-6.7812-3.2461-9.4336-5.9102zm-28.184-61.203h29.336c1.5117 0 2.7344 1.2227 2.7344 2.7344 0 1.5078-1.2227 2.7344-2.7344 2.7344h-29.336c-1.5117 0-2.7344-1.2266-2.7344-2.7344 0-1.5117 1.2227-2.7344 2.7344-2.7344zm11.375 33.805-11.375-0.003906c-1.5117 0-2.7344-1.2227-2.7344-2.7344s1.2227-2.7344 2.7344-2.7344h11.379c1.5078 0 2.7344 1.2227 2.7344 2.7344s-1.2266 2.7344-2.7344 2.7344z" fill="#333333"></path></svg> 