<?xml version="1.0" encoding="UTF-8"?> <svg xmlns="http://www.w3.org/2000/svg" xmlns:xlink="http://www.w3.org/1999/xlink" version="1.1" x="0px" y="0px" viewBox="0 0 750 500" style="enable-background:new 0 0 750 500;" xml:space="preserve"> <g id="BACKGROUND"> <linearGradient id="SVGID_1_" gradientUnits="userSpaceOnUse" x1="0" y1="250" x2="750" y2="250"> <stop offset="0" style="stop-color:#FF8C2E"></stop> <stop offset="0.308" style="stop-color:#FFA135"></stop> <stop offset="0.9413" style="stop-color:#FFD746"></stop> <stop offset="1" style="stop-color:#FFDC48"></stop> </linearGradient> <rect style="fill:url(#SVGID_1_);" width="750" height="500"></rect> </g> <g id="OBJECTS"> <g> <defs> <rect id="SVGID_00000134217658113655712940000010637179553797539203_" width="750" height="500"></rect> </defs> <clipPath id="SVGID_00000126320331923952724420000000164631653611211438_"> <use xlink:href="#SVGID_00000134217658113655712940000010637179553797539203_" style="overflow:visible;opacity:0.1;"></use> </clipPath> <g style="clip-path:url(#SVGID_00000126320331923952724420000000164631653611211438_);"> <g> <g> <polygon style="fill:#FFFFFF;" points="9.637,-13.854 60.412,-58.514 -2.505,-94.84 9.637,-13.854 "></polygon> <polygon style="opacity:0;fill:#FFFFFF;" points="9.637,-13.854 -2.505,50.462 60.412,14.137 9.637,-13.854 "></polygon> <polygon style="fill:#FFFFFF;" points="9.637,-13.854 9.637,-13.854 9.637,-13.854 "></polygon> <polygon style="opacity:0.4;fill:#FFFFFF;" points="60.412,14.137 60.412,-58.514 9.637,-13.854 "></polygon> <polygon style="opacity:0.4;fill:#FFFFFF;" points="9.637,-13.854 -65.423,14.137 -2.505,50.462 "></polygon> <polygon style="fill:#FFFFFF;" points="-2.505,-94.84 -65.423,-58.514 9.637,-13.854 "></polygon> <polygon style="fill:#FFFFFF;" points="9.637,-13.854 -65.423,-58.514 -65.423,14.137 9.637,-13.854 "></polygon> </g> <g> <polygon style="fill:#FFFFFF;" points="108.825,-48.441 186.247,-58.514 123.33,-94.84 108.825,-48.441 "></polygon> <polygon style="opacity:0;fill:#FFFFFF;" points="108.825,-48.441 123.33,50.462 186.247,14.137 108.825,-48.441 "></polygon> <polygon style="fill:#FFFFFF;" points="108.825,-48.441 108.825,-48.441 108.825,-48.441 "></polygon> <polygon style="opacity:0.4;fill:#FFFFFF;" points="186.247,14.137 186.247,-58.514 108.825,-48.441 "></polygon> <polygon style="opacity:0.2;fill:#FFFFFF;" points="108.825,-48.441 60.412,14.137 123.33,50.462 "></polygon> <polygon style="fill:#FFFFFF;" points="123.33,-94.84 60.412,-58.514 108.825,-48.441 "></polygon> <polygon style="opacity:0;fill:#FFFFFF;" points="108.825,-48.441 60.412,-58.514 60.412,14.137 108.825,-48.441 "></polygon> </g> <g> <polygon style="fill:#FFFFFF;" points="232.699,-11.348 312.082,-58.514 249.165,-94.84 232.699,-11.348 "></polygon> <polygon style="opacity:0.3;fill:#FFFFFF;" points="232.699,-11.348 249.165,50.462 312.082,14.137 232.699,-11.348 "></polygon> <polygon style="fill:#FFFFFF;" points="232.699,-11.348 232.699,-11.348 232.699,-11.348 "></polygon> <polygon style="opacity:0.1;fill:#FFFFFF;" points="312.082,14.137 312.082,-58.514 232.699,-11.348 "></polygon> <polygon style="opacity:0;fill:#FFFFFF;" points="232.699,-11.348 186.247,14.137 249.165,50.462 "></polygon> <polygon style="fill:#FFFFFF;" points="249.165,-94.84 186.247,-58.514 232.699,-11.348 "></polygon> <polygon style="opacity:0.3;fill:#FFFFFF;" points="232.699,-11.348 186.247,-58.514 186.247,14.137 232.699,-11.348 "></polygon> </g> <g> <polygon style="fill:#FFFFFF;" points="383.579,-48.441 437.918,-58.514 375,-94.84 383.579,-48.441 "></polygon> <polygon style="opacity:0.4;fill:#FFFFFF;" points="383.579,-48.441 375,50.462 437.918,14.137 383.579,-48.441 "></polygon> <polygon style="fill:#FFFFFF;" points="383.579,-48.441 383.579,-48.441 383.579,-48.441 "></polygon> <polygon style="opacity:0.7;fill:#FFFFFF;" points="437.918,14.137 437.918,-58.514 383.579,-48.441 "></polygon> <polygon style="opacity:0;fill:#FFFFFF;" points="383.579,-48.441 312.082,14.137 375,50.462 "></polygon> <polygon style="fill:#FFFFFF;" points="375,-94.84 312.082,-58.514 383.579,-48.441 "></polygon> <polygon style="opacity:0.4;fill:#FFFFFF;" points="383.579,-48.441 312.082,-58.514 312.082,14.137 383.579,-48.441 "></polygon> </g> <g> <polygon style="fill:#FFFFFF;" points="512.905,-39.419 563.753,-58.514 500.835,-94.84 512.905,-39.419 "></polygon> <polygon style="opacity:0.6;fill:#FFFFFF;" points="512.905,-39.419 500.835,50.462 563.753,14.137 512.905,-39.419 "></polygon> <polygon style="fill:#FFFFFF;" points="512.905,-39.419 512.905,-39.419 512.905,-39.419 "></polygon> <polygon style="opacity:0.4;fill:#FFFFFF;" points="563.753,14.137 563.753,-58.514 512.905,-39.419 "></polygon> <polygon style="opacity:0;fill:#FFFFFF;" points="512.905,-39.419 437.918,14.137 500.835,50.462 "></polygon> <polygon style="fill:#FFFFFF;" points="500.835,-94.84 437.918,-58.514 512.905,-39.419 "></polygon> <polygon style="opacity:0.6;fill:#FFFFFF;" points="512.905,-39.419 437.918,-58.514 437.918,14.137 512.905,-39.419 "></polygon> </g> <g> <polygon style="fill:#FFFFFF;" points="620.175,-8.34 689.588,-58.514 626.67,-94.84 620.175,-8.34 "></polygon> <polygon style="opacity:0.5;fill:#FFFFFF;" points="620.175,-8.34 626.67,50.462 689.588,14.137 620.175,-8.34 "></polygon> <polygon style="fill:#FFFFFF;" points="620.175,-8.34 620.175,-8.34 620.175,-8.34 "></polygon> <polygon style="opacity:0.4;fill:#FFFFFF;" points="689.588,14.137 689.588,-58.514 620.175,-8.34 "></polygon> <polygon style="opacity:0.4;fill:#FFFFFF;" points="620.175,-8.34 563.753,14.137 626.67,50.462 "></polygon> <polygon style="fill:#FFFFFF;" points="626.67,-94.84 563.753,-58.514 620.175,-8.34 "></polygon> <polygon style="opacity:0.7;fill:#FFFFFF;" points="620.175,-8.34 563.753,-58.514 563.753,14.137 620.175,-8.34 "></polygon> </g> <g> <polygon style="fill:#FFFFFF;" points="741.699,-42.426 815.423,-58.514 752.505,-94.84 741.699,-42.426 "></polygon> <polygon style="fill:#FFFFFF;" points="741.699,-42.426 752.505,50.462 815.423,14.137 741.699,-42.426 "></polygon> <polygon style="fill:#FFFFFF;" points="741.699,-42.426 741.699,-42.426 741.699,-42.426 "></polygon> <polygon style="fill:#FFFFFF;" points="815.423,14.137 815.423,-58.514 741.699,-42.426 "></polygon> <polygon style="opacity:0.5;fill:#FFFFFF;" points="741.699,-42.426 689.588,14.137 752.505,50.462 "></polygon> <polygon style="fill:#FFFFFF;" points="752.505,-94.84 689.588,-58.514 741.699,-42.426 "></polygon> <polygon style="opacity:0.7;fill:#FFFFFF;" points="741.699,-42.426 689.588,-58.514 689.588,14.137 741.699,-42.426 "></polygon> </g> </g> <g> <g> <polygon style="opacity:0;fill:#FFFFFF;" points="72.041,102.549 123.33,50.31 60.412,13.984 72.041,102.549 "></polygon> <polygon style="opacity:0.4;fill:#FFFFFF;" points="72.041,102.549 60.412,159.286 123.33,122.961 72.041,102.549 "></polygon> <polygon style="fill:#FFFFFF;" points="72.041,102.549 72.041,102.549 72.041,102.549 "></polygon> <polygon style="opacity:0.1;fill:#FFFFFF;" points="123.33,122.961 123.33,50.31 72.041,102.549 "></polygon> <polygon style="opacity:0.1;fill:#FFFFFF;" points="72.041,102.549 -2.505,122.961 60.412,159.286 "></polygon> <polygon style="opacity:0.1;fill:#FFFFFF;" points="60.412,13.984 -2.505,50.31 72.041,102.549 "></polygon> <polygon style="opacity:0.2;fill:#FFFFFF;" points="72.041,102.549 -2.505,50.31 -2.505,122.961 72.041,102.549 "></polygon> </g> <g> <polygon style="opacity:0.1;fill:#FFFFFF;" points="171.044,86.635 249.165,50.31 186.247,13.984 171.044,86.635 "></polygon> <polygon style="opacity:0.1;fill:#FFFFFF;" points="171.044,86.635 186.247,159.286 249.165,122.961 171.044,86.635 "></polygon> <polygon style="fill:#FFFFFF;" points="171.044,86.635 171.044,86.635 171.044,86.635 "></polygon> <polygon style="opacity:0.3;fill:#FFFFFF;" points="249.165,122.961 249.165,50.31 171.044,86.635 "></polygon> <polygon style="opacity:0.3;fill:#FFFFFF;" points="171.044,86.635 123.33,122.961 186.247,159.286 "></polygon> <polygon style="opacity:0.2;fill:#FFFFFF;" points="186.247,13.984 123.33,50.31 171.044,86.635 "></polygon> <polygon style="opacity:0;fill:#FFFFFF;" points="171.044,86.635 123.33,50.31 123.33,122.961 171.044,86.635 "></polygon> </g> <g> <polygon style="opacity:0.1;fill:#FFFFFF;" points="306.886,67.852 375,50.31 312.082,13.984 306.886,67.852 "></polygon> <polygon style="opacity:0.4;fill:#FFFFFF;" points="306.886,67.852 312.082,159.286 375,122.961 306.886,67.852 "></polygon> <polygon style="fill:#FFFFFF;" points="306.886,67.852 306.886,67.852 306.886,67.852 "></polygon> <polygon style="opacity:0.3;fill:#FFFFFF;" points="375,122.961 375,50.31 306.886,67.852 "></polygon> <polygon style="opacity:0.2;fill:#FFFFFF;" points="306.886,67.852 249.165,122.961 312.082,159.286 "></polygon> <polygon style="opacity:0.2;fill:#FFFFFF;" points="312.082,13.984 249.165,50.31 306.886,67.852 "></polygon> <polygon style="opacity:0;fill:#FFFFFF;" points="306.886,67.852 249.165,50.31 249.165,122.961 306.886,67.852 "></polygon> </g> <g> <polygon style="opacity:0.4;fill:#FFFFFF;" points="425.22,67.852 500.835,50.31 437.917,13.984 425.22,67.852 "></polygon> <polygon style="opacity:0.4;fill:#FFFFFF;" points="425.22,67.852 437.917,159.286 500.835,122.961 425.22,67.852 "></polygon> <polygon style="fill:#FFFFFF;" points="425.22,67.852 425.22,67.852 425.22,67.852 "></polygon> <polygon style="opacity:0.6;fill:#FFFFFF;" points="500.835,122.961 500.835,50.31 425.22,67.852 "></polygon> <polygon style="opacity:0.5;fill:#FFFFFF;" points="425.22,67.852 375,122.961 437.917,159.286 "></polygon> <polygon style="opacity:0.5;fill:#FFFFFF;" points="437.917,13.984 375,50.31 425.22,67.852 "></polygon> <polygon style="opacity:0.1;fill:#FFFFFF;" points="425.22,67.852 375,50.31 375,122.961 425.22,67.852 "></polygon> </g> <g> <polygon style="opacity:0.7;fill:#FFFFFF;" points="570.55,58.267 626.67,50.31 563.753,13.984 570.55,58.267 "></polygon> <polygon style="opacity:0.5;fill:#FFFFFF;" points="570.55,58.267 563.753,159.286 626.67,122.961 570.55,58.267 "></polygon> <polygon style="fill:#FFFFFF;" points="570.55,58.267 570.55,58.267 570.55,58.267 "></polygon> <polygon style="opacity:0.6;fill:#FFFFFF;" points="626.67,122.961 626.67,50.31 570.55,58.267 "></polygon> <polygon style="opacity:0.4;fill:#FFFFFF;" points="570.55,58.267 500.835,122.961 563.753,159.286 "></polygon> <polygon style="opacity:0.4;fill:#FFFFFF;" points="563.753,13.984 500.835,50.31 570.55,58.267 "></polygon> <polygon style="opacity:0.5;fill:#FFFFFF;" points="570.55,58.267 500.835,50.31 500.835,122.961 570.55,58.267 "></polygon> </g> <g> <polygon style="opacity:0.4;fill:#FFFFFF;" points="680.828,98.93 752.505,50.31 689.588,13.984 680.828,98.93 "></polygon> <polygon style="opacity:0.7;fill:#FFFFFF;" points="680.828,98.93 689.588,159.286 752.505,122.961 680.828,98.93 "></polygon> <polygon style="fill:#FFFFFF;" points="680.828,98.93 680.828,98.93 680.828,98.93 "></polygon> <polygon style="opacity:0.5;fill:#FFFFFF;" points="752.505,122.961 752.505,50.31 680.828,98.93 "></polygon> <polygon style="opacity:0.6;fill:#FFFFFF;" points="680.828,98.93 626.67,122.961 689.588,159.286 "></polygon> <polygon style="opacity:0.6;fill:#FFFFFF;" points="689.588,13.984 626.67,50.31 680.828,98.93 "></polygon> <polygon style="opacity:0.4;fill:#FFFFFF;" points="680.828,98.93 626.67,50.31 626.67,122.961 680.828,98.93 "></polygon> </g> </g> <g> <g> <polygon style="opacity:0;fill:#FFFFFF;" points="-13.349,210.93 60.412,159.238 -2.505,122.913 -13.349,210.93 "></polygon> <polygon style="opacity:0.1;fill:#FFFFFF;" points="-13.349,210.93 -2.505,268.215 60.412,231.889 -13.349,210.93 "></polygon> <polygon style="fill:#FFFFFF;" points="-13.349,210.93 -13.349,210.93 -13.349,210.93 "></polygon> <polygon style="opacity:0.2;fill:#FFFFFF;" points="60.412,231.889 60.412,159.238 -13.349,210.93 "></polygon> <polygon style="fill:#FFFFFF;" points="-13.349,210.93 -65.423,231.889 -2.505,268.215 "></polygon> <polygon style="fill:#FFFFFF;" points="-2.505,122.913 -65.423,159.238 -13.349,210.93 "></polygon> <polygon style="fill:#FFFFFF;" points="-13.349,210.93 -65.423,159.238 -65.423,231.889 -13.349,210.93 "></polygon> </g> <g> <polygon style="opacity:0.4;fill:#FFFFFF;" points="108.825,182.685 186.247,159.238 123.33,122.913 108.825,182.685 "></polygon> <polygon style="opacity:0.1;fill:#FFFFFF;" points="108.825,182.685 123.33,268.215 186.247,231.889 108.825,182.685 "></polygon> <polygon style="fill:#FFFFFF;" points="108.825,182.685 108.825,182.685 108.825,182.685 "></polygon> <polygon style="opacity:0;fill:#FFFFFF;" points="186.247,231.889 186.247,159.238 108.825,182.685 "></polygon> <polygon style="opacity:0;fill:#FFFFFF;" points="108.825,182.685 60.412,231.889 123.33,268.215 "></polygon> <polygon style="opacity:0.3;fill:#FFFFFF;" points="123.33,122.913 60.412,159.238 108.825,182.685 "></polygon> <polygon style="opacity:0.4;fill:#FFFFFF;" points="108.825,182.685 60.412,159.238 60.412,231.889 108.825,182.685 "></polygon> </g> <g> <polygon style="opacity:0.3;fill:#FFFFFF;" points="235.601,166.921 312.082,159.238 249.165,122.913 235.601,166.921 "></polygon> <polygon style="opacity:0.1;fill:#FFFFFF;" points="235.601,166.921 249.165,268.215 312.082,231.889 235.601,166.921 "></polygon> <polygon style="fill:#FFFFFF;" points="235.601,166.921 235.601,166.921 235.601,166.921 "></polygon> <polygon style="opacity:0;fill:#FFFFFF;" points="312.082,231.889 312.082,159.238 235.601,166.921 "></polygon> <polygon style="opacity:0.2;fill:#FFFFFF;" points="235.601,166.921 186.247,231.889 249.165,268.215 "></polygon> <polygon style="opacity:0.2;fill:#FFFFFF;" points="249.165,122.913 186.247,159.238 235.601,166.921 "></polygon> <polygon style="opacity:0.3;fill:#FFFFFF;" points="235.601,166.921 186.247,159.238 186.247,231.889 235.601,166.921 "></polygon> </g> <g> <polygon style="opacity:0;fill:#FFFFFF;" points="392.824,172.083 437.918,159.238 375,122.913 392.824,172.083 "></polygon> <polygon style="opacity:0.5;fill:#FFFFFF;" points="392.824,172.083 375,268.215 437.918,231.889 392.824,172.083 "></polygon> <polygon style="fill:#FFFFFF;" points="392.824,172.083 392.824,172.083 392.824,172.083 "></polygon> <polygon style="opacity:0.4;fill:#FFFFFF;" points="437.918,231.889 437.918,159.238 392.824,172.083 "></polygon> <polygon style="opacity:0.4;fill:#FFFFFF;" points="392.824,172.083 312.082,231.889 375,268.215 "></polygon> <polygon style="opacity:0.3;fill:#FFFFFF;" points="375,122.913 312.082,159.238 392.824,172.083 "></polygon> <polygon style="opacity:0.2;fill:#FFFFFF;" points="392.824,172.083 312.082,159.238 312.082,231.889 392.824,172.083 "></polygon> </g> <g> <polygon style="opacity:0.6;fill:#FFFFFF;" points="505.864,209.38 563.753,159.238 500.835,122.913 505.864,209.38 "></polygon> <polygon style="opacity:0.6;fill:#FFFFFF;" points="505.864,209.38 500.835,268.215 563.753,231.889 505.864,209.38 "></polygon> <polygon style="fill:#FFFFFF;" points="505.864,209.38 505.864,209.38 505.864,209.38 "></polygon> <polygon style="opacity:0.5;fill:#FFFFFF;" points="563.753,231.889 563.753,159.238 505.864,209.38 "></polygon> <polygon style="opacity:0.4;fill:#FFFFFF;" points="505.864,209.38 437.918,231.889 500.835,268.215 "></polygon> <polygon style="opacity:0.4;fill:#FFFFFF;" points="500.835,122.913 437.918,159.238 505.864,209.38 "></polygon> <polygon style="opacity:0.5;fill:#FFFFFF;" points="505.864,209.38 437.918,159.238 437.918,231.889 505.864,209.38 "></polygon> </g> <g> <polygon style="opacity:0.7;fill:#FFFFFF;" points="614.314,182.685 689.588,159.238 626.67,122.913 614.314,182.685 "></polygon> <polygon style="opacity:0.4;fill:#FFFFFF;" points="614.314,182.685 626.67,268.215 689.588,231.889 614.314,182.685 "></polygon> <polygon style="fill:#FFFFFF;" points="614.314,182.685 614.314,182.685 614.314,182.685 "></polygon> <polygon style="opacity:0.5;fill:#FFFFFF;" points="689.588,231.889 689.588,159.238 614.314,182.685 "></polygon> <polygon style="opacity:0.6;fill:#FFFFFF;" points="614.314,182.685 563.753,231.889 626.67,268.215 "></polygon> <polygon style="opacity:0.4;fill:#FFFFFF;" points="626.67,122.913 563.753,159.238 614.314,182.685 "></polygon> <polygon style="opacity:0.4;fill:#FFFFFF;" points="614.314,182.685 563.753,159.238 563.753,231.889 614.314,182.685 "></polygon> </g> <g> <polygon style="opacity:0.7;fill:#FFFFFF;" points="741.699,214.1 815.423,159.238 752.505,122.913 741.699,214.1 "></polygon> <polygon style="opacity:0.6;fill:#FFFFFF;" points="741.699,214.1 752.505,268.215 815.423,231.889 741.699,214.1 "></polygon> <polygon style="fill:#FFFFFF;" points="741.699,214.1 741.699,214.1 741.699,214.1 "></polygon> <polygon style="opacity:0.5;fill:#FFFFFF;" points="815.423,231.889 815.423,159.238 741.699,214.1 "></polygon> <polygon style="opacity:0.7;fill:#FFFFFF;" points="741.699,214.1 689.588,231.889 752.505,268.215 "></polygon> <polygon style="opacity:0.4;fill:#FFFFFF;" points="752.505,122.913 689.588,159.238 741.699,214.1 "></polygon> <polygon style="opacity:0.6;fill:#FFFFFF;" points="741.699,214.1 689.588,159.238 689.588,231.889 741.699,214.1 "></polygon> </g> </g> <g> <g> <polygon style="opacity:0.2;fill:#FFFFFF;" points="34.768,295.582 123.33,268.063 60.412,231.737 34.768,295.582 "></polygon> <polygon style="opacity:0;fill:#FFFFFF;" points="34.768,295.582 60.412,377.039 123.33,340.714 34.768,295.582 "></polygon> <polygon style="fill:#FFFFFF;" points="34.768,295.582 34.768,295.582 34.768,295.582 "></polygon> <polygon style="opacity:0.1;fill:#FFFFFF;" points="123.33,340.714 123.33,268.063 34.768,295.582 "></polygon> <polygon style="opacity:0.2;fill:#FFFFFF;" points="34.768,295.582 -2.505,340.714 60.412,377.039 "></polygon> <polygon style="opacity:0.3;fill:#FFFFFF;" points="60.412,231.737 -2.505,268.063 34.768,295.582 "></polygon> <polygon style="opacity:0.4;fill:#FFFFFF;" points="34.768,295.582 -2.505,268.063 -2.505,340.714 34.768,295.582 "></polygon> </g> <g> <polygon style="opacity:0.1;fill:#FFFFFF;" points="190.887,285.792 249.165,268.063 186.247,231.737 190.887,285.792 "></polygon> <polygon style="opacity:0.2;fill:#FFFFFF;" points="190.887,285.792 186.247,377.039 249.165,340.714 190.887,285.792 "></polygon> <polygon style="fill:#FFFFFF;" points="190.887,285.792 190.887,285.792 190.887,285.792 "></polygon> <polygon style="opacity:0;fill:#FFFFFF;" points="249.165,340.714 249.165,268.063 190.887,285.792 "></polygon> <polygon style="opacity:0;fill:#FFFFFF;" points="190.887,285.792 123.33,340.714 186.247,377.039 "></polygon> <polygon style="opacity:0.4;fill:#FFFFFF;" points="186.247,231.737 123.33,268.063 190.887,285.792 "></polygon> <polygon style="opacity:0.3;fill:#FFFFFF;" points="190.887,285.792 123.33,268.063 123.33,340.714 190.887,285.792 "></polygon> </g> <g> <polygon style="opacity:0.2;fill:#FFFFFF;" points="296.597,313.912 375,268.063 312.082,231.737 296.597,313.912 "></polygon> <polygon style="opacity:0.1;fill:#FFFFFF;" points="296.597,313.912 312.082,377.039 375,340.714 296.597,313.912 "></polygon> <polygon style="fill:#FFFFFF;" points="296.597,313.912 296.597,313.912 296.597,313.912 "></polygon> <polygon style="opacity:0;fill:#FFFFFF;" points="375,340.714 375,268.063 296.597,313.912 "></polygon> <polygon style="opacity:0.4;fill:#FFFFFF;" points="296.597,313.912 249.165,340.714 312.082,377.039 "></polygon> <polygon style="opacity:0.3;fill:#FFFFFF;" points="312.082,231.737 249.165,268.063 296.597,313.912 "></polygon> <polygon style="opacity:0.2;fill:#FFFFFF;" points="296.597,313.912 249.165,268.063 249.165,340.714 296.597,313.912 "></polygon> </g> <g> <polygon style="opacity:0.6;fill:#FFFFFF;" points="425.22,282.147 500.835,268.063 437.917,231.737 425.22,282.147 "></polygon> <polygon style="opacity:0.5;fill:#FFFFFF;" points="425.22,282.147 437.917,377.039 500.835,340.714 425.22,282.147 "></polygon> <polygon style="fill:#FFFFFF;" points="425.22,282.147 425.22,282.147 425.22,282.147 "></polygon> <polygon style="opacity:0.4;fill:#FFFFFF;" points="500.835,340.714 500.835,268.063 425.22,282.147 "></polygon> <polygon style="opacity:0.4;fill:#FFFFFF;" points="425.22,282.147 375,340.714 437.917,377.039 "></polygon> <polygon style="opacity:0.4;fill:#FFFFFF;" points="437.917,231.737 375,268.063 425.22,282.147 "></polygon> <polygon style="opacity:0.3;fill:#FFFFFF;" points="425.22,282.147 375,268.063 375,340.714 425.22,282.147 "></polygon> </g> <g> <polygon style="opacity:0.4;fill:#FFFFFF;" points="585.165,292.041 626.67,268.063 563.753,231.737 585.165,292.041 "></polygon> <polygon style="opacity:0.5;fill:#FFFFFF;" points="585.165,292.041 563.753,377.039 626.67,340.714 585.165,292.041 "></polygon> <polygon style="fill:#FFFFFF;" points="585.165,292.041 585.165,292.041 585.165,292.041 "></polygon> <polygon style="opacity:0.4;fill:#FFFFFF;" points="626.67,340.714 626.67,268.063 585.165,292.041 "></polygon> <polygon style="opacity:0.6;fill:#FFFFFF;" points="585.165,292.041 500.835,340.714 563.753,377.039 "></polygon> <polygon style="opacity:0.5;fill:#FFFFFF;" points="563.753,231.737 500.835,268.063 585.165,292.041 "></polygon> <polygon style="opacity:0.4;fill:#FFFFFF;" points="585.165,292.041 500.835,268.063 500.835,340.714 585.165,292.041 "></polygon> </g> <g> <polygon style="opacity:0.5;fill:#FFFFFF;" points="675.031,288.917 752.505,268.063 689.588,231.737 675.031,288.917 "></polygon> <polygon style="opacity:0.6;fill:#FFFFFF;" points="675.031,288.917 689.588,377.039 752.505,340.714 675.031,288.917 "></polygon> <polygon style="fill:#FFFFFF;" points="675.031,288.917 675.031,288.917 675.031,288.917 "></polygon> <polygon style="opacity:0.4;fill:#FFFFFF;" points="752.505,340.714 752.505,268.063 675.031,288.917 "></polygon> <polygon style="opacity:0.5;fill:#FFFFFF;" points="675.031,288.917 626.67,340.714 689.588,377.039 "></polygon> <polygon style="opacity:0.7;fill:#FFFFFF;" points="689.588,231.737 626.67,268.063 675.031,288.917 "></polygon> <polygon style="opacity:0.6;fill:#FFFFFF;" points="675.031,288.917 626.67,268.063 626.67,340.714 675.031,288.917 "></polygon> </g> </g> <g> <g> <polygon style="opacity:0.1;fill:#FFFFFF;" points="-9.125,401.042 60.412,377.039 -2.505,340.714 -9.125,401.042 "></polygon> <polygon style="opacity:0.1;fill:#FFFFFF;" points="-9.125,401.042 -2.505,486.016 60.412,449.69 -9.125,401.042 "></polygon> <polygon style="fill:#FFFFFF;" points="-9.125,401.042 -9.125,401.042 -9.125,401.042 "></polygon> <polygon style="opacity:0;fill:#FFFFFF;" points="60.412,449.69 60.412,377.039 -9.125,401.042 "></polygon> <polygon style="fill:#FFFFFF;" points="-9.125,401.042 -65.423,449.69 -2.505,486.016 "></polygon> <polygon style="fill:#FFFFFF;" points="-2.505,340.714 -65.423,377.039 -9.125,401.042 "></polygon> <polygon style="fill:#FFFFFF;" points="-9.125,401.042 -65.423,377.039 -65.423,449.69 -9.125,401.042 "></polygon> </g> <g> <polygon style="opacity:0.3;fill:#FFFFFF;" points="123.33,386.309 186.247,377.039 123.33,340.714 123.33,386.309 "></polygon> <polygon style="opacity:0.2;fill:#FFFFFF;" points="123.33,386.309 123.33,486.016 186.247,449.69 123.33,386.309 "></polygon> <polygon style="fill:#FFFFFF;" points="123.33,386.309 123.33,386.309 123.33,386.309 "></polygon> <polygon style="opacity:0;fill:#FFFFFF;" points="186.247,449.69 186.247,377.039 123.33,386.309 "></polygon> <polygon style="opacity:0;fill:#FFFFFF;" points="123.33,386.309 60.412,449.69 123.33,486.016 "></polygon> <polygon style="opacity:0.2;fill:#FFFFFF;" points="123.33,340.714 60.412,377.039 123.33,386.309 "></polygon> <polygon style="opacity:0.3;fill:#FFFFFF;" points="123.33,386.309 60.412,377.039 60.412,449.69 123.33,386.309 "></polygon> </g> <g> <polygon style="opacity:0.3;fill:#FFFFFF;" points="227.715,397.476 312.082,377.039 249.165,340.714 227.715,397.476 "></polygon> <polygon style="opacity:0.1;fill:#FFFFFF;" points="227.715,397.476 249.165,486.016 312.082,449.69 227.715,397.476 "></polygon> <polygon style="fill:#FFFFFF;" points="227.715,397.476 227.715,397.476 227.715,397.476 "></polygon> <polygon style="opacity:0;fill:#FFFFFF;" points="312.082,449.69 312.082,377.039 227.715,397.476 "></polygon> <polygon style="opacity:0.2;fill:#FFFFFF;" points="227.715,397.476 186.247,449.69 249.165,486.016 "></polygon> <polygon style="opacity:0.1;fill:#FFFFFF;" points="249.165,340.714 186.247,377.039 227.715,397.476 "></polygon> <polygon style="opacity:0.3;fill:#FFFFFF;" points="227.715,397.476 186.247,377.039 186.247,449.69 227.715,397.476 "></polygon> </g> <g> <polygon style="opacity:0.6;fill:#FFFFFF;" points="381.418,389.593 437.918,377.039 375,340.714 381.418,389.593 "></polygon> <polygon style="opacity:0;fill:#FFFFFF;" points="381.418,389.593 375,486.016 437.918,449.69 381.418,389.593 "></polygon> <polygon style="fill:#FFFFFF;" points="381.418,389.593 381.418,389.593 381.418,389.593 "></polygon> <polygon style="opacity:0.5;fill:#FFFFFF;" points="437.918,449.69 437.918,377.039 381.418,389.593 "></polygon> <polygon style="opacity:0.3;fill:#FFFFFF;" points="381.418,389.593 312.082,449.69 375,486.016 "></polygon> <polygon style="opacity:0.5;fill:#FFFFFF;" points="375,340.714 312.082,377.039 381.418,389.593 "></polygon> <polygon style="opacity:0.2;fill:#FFFFFF;" points="381.418,389.593 312.082,377.039 312.082,449.69 381.418,389.593 "></polygon> </g> <g> <polygon style="opacity:0.4;fill:#FFFFFF;" points="495.71,426.377 563.753,377.039 500.835,340.714 495.71,426.377 "></polygon> <polygon style="opacity:0.5;fill:#FFFFFF;" points="495.71,426.377 500.835,486.016 563.753,449.69 495.71,426.377 "></polygon> <polygon style="fill:#FFFFFF;" points="495.71,426.377 495.71,426.377 495.71,426.377 "></polygon> <polygon style="opacity:0.3;fill:#FFFFFF;" points="563.753,449.69 563.753,377.039 495.71,426.377 "></polygon> <polygon style="opacity:0.4;fill:#FFFFFF;" points="495.71,426.377 437.918,449.69 500.835,486.016 "></polygon> <polygon style="opacity:0.6;fill:#FFFFFF;" points="500.835,340.714 437.918,377.039 495.71,426.377 "></polygon> <polygon style="opacity:0.4;fill:#FFFFFF;" points="495.71,426.377 437.918,377.039 437.918,449.69 495.71,426.377 "></polygon> </g> <g> <polygon style="opacity:0.6;fill:#FFFFFF;" points="635.62,393.995 689.588,377.039 626.67,340.714 635.62,393.995 "></polygon> <polygon style="opacity:0.5;fill:#FFFFFF;" points="635.62,393.995 626.67,486.016 689.588,449.69 635.62,393.995 "></polygon> <polygon style="fill:#FFFFFF;" points="635.62,393.995 635.62,393.995 635.62,393.995 "></polygon> <polygon style="opacity:0.4;fill:#FFFFFF;" points="689.588,449.69 689.588,377.039 635.62,393.995 "></polygon> <polygon style="opacity:0.6;fill:#FFFFFF;" points="635.62,393.995 563.753,449.69 626.67,486.016 "></polygon> <polygon style="opacity:0.4;fill:#FFFFFF;" points="626.67,340.714 563.753,377.039 635.62,393.995 "></polygon> <polygon style="opacity:0.4;fill:#FFFFFF;" points="635.62,393.995 563.753,377.039 563.753,449.69 635.62,393.995 "></polygon> </g> <g> <polygon style="opacity:0.7;fill:#FFFFFF;" points="728.236,420.465 815.423,377.039 752.505,340.714 728.236,420.465 "></polygon> <polygon style="opacity:0.7;fill:#FFFFFF;" points="728.236,420.465 752.505,486.016 815.423,449.69 728.236,420.465 "></polygon> <polygon style="fill:#FFFFFF;" points="728.236,420.465 728.236,420.465 728.236,420.465 "></polygon> <polygon style="opacity:0.6;fill:#FFFFFF;" points="815.423,449.69 815.423,377.039 728.236,420.465 "></polygon> <polygon style="opacity:0.4;fill:#FFFFFF;" points="728.236,420.465 689.588,449.69 752.505,486.016 "></polygon> <polygon style="opacity:0.4;fill:#FFFFFF;" points="752.505,340.714 689.588,377.039 728.236,420.465 "></polygon> <polygon style="opacity:0.6;fill:#FFFFFF;" points="728.236,420.465 689.588,377.039 689.588,449.69 728.236,420.465 "></polygon> </g> </g> <g> <g> <polygon style="opacity:0.1;fill:#FFFFFF;" points="60.412,505.199 123.33,485.863 60.412,449.538 60.412,505.199 "></polygon> <polygon style="fill:#FFFFFF;" points="60.412,505.199 60.412,594.84 123.33,558.514 60.412,505.199 "></polygon> <polygon style="fill:#FFFFFF;" points="60.412,505.199 60.412,505.199 60.412,505.199 "></polygon> <polygon style="opacity:0.3;fill:#FFFFFF;" points="123.33,558.514 123.33,485.863 60.412,505.199 "></polygon> <polygon style="fill:#FFFFFF;" points="60.412,505.199 -2.505,558.514 60.412,594.84 "></polygon> <polygon style="opacity:0;fill:#FFFFFF;" points="60.412,449.538 -2.505,485.863 60.412,505.199 "></polygon> <polygon style="opacity:0.4;fill:#FFFFFF;" points="60.412,505.199 -2.505,485.863 -2.505,558.514 60.412,505.199 "></polygon> </g> <g> <polygon style="opacity:0;fill:#FFFFFF;" points="167.285,532.13 249.165,485.863 186.247,449.538 167.285,532.13 "></polygon> <polygon style="fill:#FFFFFF;" points="167.285,532.13 186.247,594.84 249.165,558.514 167.285,532.13 "></polygon> <polygon style="fill:#FFFFFF;" points="167.285,532.13 167.285,532.13 167.285,532.13 "></polygon> <polygon style="opacity:0.3;fill:#FFFFFF;" points="249.165,558.514 249.165,485.863 167.285,532.13 "></polygon> <polygon style="fill:#FFFFFF;" points="167.285,532.13 123.33,558.514 186.247,594.84 "></polygon> <polygon style="opacity:0.1;fill:#FFFFFF;" points="186.247,449.538 123.33,485.863 167.285,532.13 "></polygon> <polygon style="opacity:0.4;fill:#FFFFFF;" points="167.285,532.13 123.33,485.863 123.33,558.514 167.285,532.13 "></polygon> </g> <g> <polygon style="opacity:0.1;fill:#FFFFFF;" points="302.596,541.983 375,485.863 312.082,449.538 302.596,541.983 "></polygon> <polygon style="fill:#FFFFFF;" points="302.596,541.983 312.082,594.84 375,558.514 302.596,541.983 "></polygon> <polygon style="fill:#FFFFFF;" points="302.596,541.983 302.596,541.983 302.596,541.983 "></polygon> <polygon style="opacity:0.5;fill:#FFFFFF;" points="375,558.514 375,485.863 302.596,541.983 "></polygon> <polygon style="fill:#FFFFFF;" points="302.596,541.983 249.165,558.514 312.082,594.84 "></polygon> <polygon style="opacity:0.2;fill:#FFFFFF;" points="312.082,449.538 249.165,485.863 302.596,541.983 "></polygon> <polygon style="opacity:0.4;fill:#FFFFFF;" points="302.596,541.983 249.165,485.863 249.165,558.514 302.596,541.983 "></polygon> </g> <g> <polygon style="opacity:0.4;fill:#FFFFFF;" points="448.417,505.199 500.835,485.863 437.917,449.538 448.417,505.199 "></polygon> <polygon style="fill:#FFFFFF;" points="448.417,505.199 437.917,594.84 500.835,558.514 448.417,505.199 "></polygon> <polygon style="fill:#FFFFFF;" points="448.417,505.199 448.417,505.199 448.417,505.199 "></polygon> <polygon style="opacity:0.5;fill:#FFFFFF;" points="500.835,558.514 500.835,485.863 448.417,505.199 "></polygon> <polygon style="fill:#FFFFFF;" points="448.417,505.199 375,558.514 437.917,594.84 "></polygon> <polygon style="opacity:0.4;fill:#FFFFFF;" points="437.917,449.538 375,485.863 448.417,505.199 "></polygon> <polygon style="opacity:0.4;fill:#FFFFFF;" points="448.417,505.199 375,485.863 375,558.514 448.417,505.199 "></polygon> </g> <g> <polygon style="opacity:0.4;fill:#FFFFFF;" points="543.661,507.827 626.67,485.863 563.753,449.538 543.66,507.827 "></polygon> <polygon style="fill:#FFFFFF;" points="543.66,507.827 563.753,594.84 626.67,558.514 543.661,507.827 "></polygon> <polygon style="fill:#FFFFFF;" points="543.66,507.827 543.66,507.827 543.661,507.827 "></polygon> <polygon style="opacity:0.4;fill:#FFFFFF;" points="626.67,558.514 626.67,485.863 543.661,507.827 "></polygon> <polygon style="fill:#FFFFFF;" points="543.66,507.827 500.835,558.514 563.753,594.84 "></polygon> <polygon style="opacity:0.4;fill:#FFFFFF;" points="563.753,449.538 500.835,485.863 543.66,507.827 "></polygon> <polygon style="opacity:0.6;fill:#FFFFFF;" points="543.66,507.827 500.835,485.863 500.835,558.514 543.66,507.827 "></polygon> </g> <g> <polygon style="opacity:0.6;fill:#FFFFFF;" points="675.031,505.199 752.505,485.863 689.588,449.538 675.031,505.199 "></polygon> <polygon style="fill:#FFFFFF;" points="675.031,505.199 689.588,594.84 752.505,558.514 675.031,505.199 "></polygon> <polygon style="fill:#FFFFFF;" points="675.031,505.199 675.031,505.199 675.031,505.199 "></polygon> <polygon style="opacity:0.4;fill:#FFFFFF;" points="752.505,558.514 752.505,485.863 675.031,505.199 "></polygon> <polygon style="fill:#FFFFFF;" points="675.031,505.199 626.67,558.514 689.588,594.84 "></polygon> <polygon style="opacity:0.4;fill:#FFFFFF;" points="689.588,449.538 626.67,485.863 675.031,505.199 "></polygon> <polygon style="opacity:0.6;fill:#FFFFFF;" points="675.031,505.199 626.67,485.863 626.67,558.514 675.031,505.199 "></polygon> </g> </g> </g> </g> </g> </svg> 