<?xml version="1.0" encoding="UTF-8"?> <svg xmlns="http://www.w3.org/2000/svg" viewBox="0 0 100 100" fill-rule="evenodd"><path d="m85.652 6.5938c-15.199 4.6992-33.309 28.609-50.668 53.164-7.3672-12.414-15.172-16.559-23.242-12.312-0.99609 0.52344-1.6523 1.5273-1.7344 2.6562-0.082031 1.1406 0.42969 2.2422 1.3555 2.918 5.8516 4.2734 11.922 11.848 19.141 23.84v-0.003906c1.2891 2.1758 3.6328 3.5039 6.1562 3.4883h0.11719c2.6016-0.023438 4.9844-1.4453 6.2461-3.7188 7.0234-12.734 14.738-25.07 23.109-36.957 6.8594-9.75 14.508-18.926 22.867-27.43 1.125-1.1016 1.332-2.8359 0.5-4.1719-0.77734-1.332-2.3789-1.9453-3.8477-1.4727z" fill="#ffbf31"></path></svg> 