<?xml version="1.0" encoding="UTF-8"?> <svg xmlns="http://www.w3.org/2000/svg" viewBox="0 0 62.00 62.00" data-guides="{&quot;vertical&quot;:[],&quot;horizontal&quot;:[]}"><defs></defs><path fill="#ffbf31" stroke="#ffbf31" fill-opacity="1" stroke-width="0.5" stroke-opacity="1" alignment-baseline="baseline" baseline-shift="baseline" fill-rule="evenodd" id="tSvg16da3c9c403" title="Path 3" d="M4.4447 62.0001C3.7493 61.9998 3.315 61.2469 3.6629 60.6448C3.7018 60.5774 3.7494 60.5153 3.8043 60.46C13.5963 50.612 23.3884 40.7639 33.1804 30.9158C23.389 21.1244 13.5975 11.333 3.8061 1.5416C3.3145 1.0502 3.5392 0.211 4.2105 0.0309C4.5221 -0.0527 4.8545 0.0363 5.0827 0.2644C15.0864 10.268 25.0901 20.2717 35.0937 30.2753C35.4459 30.6269 35.4465 31.1973 35.0956 31.5507C25.092 41.6117 15.0883 51.6726 5.0845 61.7335C4.9155 61.9043 4.6851 62.0003 4.4447 62.0001Z"></path><path fill="#ffbf31" stroke="#ffbf31" fill-opacity="1" stroke-width="0.5" stroke-opacity="1" alignment-baseline="baseline" baseline-shift="baseline" fill-rule="evenodd" id="tSvg3ba12ebc17" title="Path 4" d="M27.5447 62.0001C26.8493 61.9998 26.4149 61.2469 26.7628 60.6448C26.8018 60.5774 26.8493 60.5153 26.9042 60.46C36.6962 50.612 46.4883 40.7639 56.2803 30.9158C46.4889 21.1244 36.6975 11.333 26.9061 1.5416C26.4145 1.0502 26.6391 0.211 27.3105 0.0309C27.622 -0.0527 27.9545 0.0363 28.1826 0.2644C38.1863 10.268 48.19 20.2717 58.1936 30.2753C58.5451 30.6269 58.5464 31.1973 58.1955 31.5507C48.1918 41.6117 38.1882 51.6726 28.1845 61.7335C28.0154 61.9043 27.785 62.0003 27.5447 62.0001Z"></path></svg> 