<?xml version="1.0" encoding="UTF-8"?> <svg xmlns="http://www.w3.org/2000/svg" viewBox="0 0 100 100" fill-rule="evenodd"><path d="m87.879 53.277c3.5703-3.5703 5.7773-8.5039 5.7773-13.953s-2.2109-10.387-5.7773-13.953c-3.5703-3.5703-8.5039-5.7773-13.953-5.7773s-10.387 2.2109-13.953 5.7773c-3.5703 3.5703-5.7773 8.5039-5.7773 13.953s2.2109 10.387 5.7773 13.953l0.089844 0.09375c3.5586 3.5156 8.457 5.6836 13.863 5.6836 5.2227 0 10.219-2.043 13.953-5.7773zm-15.957-27.098c0-1.1055 0.89453-2 2-2s2 0.89453 2 2v13.141c0 0.57422-0.24219 1.0898-0.62891 1.457l-6.168 6.168c-0.78125 0.78125-2.0469 0.78125-2.8281 0s-0.78125-2.0469 0-2.8281l5.625-5.625zm7.9688 36.121v20.113c0 1.1055-0.89453 2-2 2-0.59375 0-1.1289-0.26172-1.4961-0.67187-8.3359-8.1641-20.293-4.1836-30.23-0.87109-1.5469 0.51562-3.0547 1.0195-4.4688 1.4531-0.39062 0.12109-0.79297 0.10938-1.1562 0-1.418-0.43359-2.9219-0.9375-4.4688-1.4531-9.9727-3.3242-21.98-7.3242-30.324 0.96094-0.78125 0.77734-2.043 0.77344-2.8203-0.007812-0.38672-0.38672-0.57812-0.89844-0.57812-1.4062l-0.007812-7.1016 0.007812-0.16797-0.007812-43.867c0-0.62109 0.28516-1.1758 0.73047-1.543 10.062-9.8359 23.266-5.4414 34.242-1.7852 1.2695 0.42188 2.5117 0.83594 3.8047 1.2422 1.2891-0.40234 2.5273-0.81641 3.793-1.2383 3.2461-1.082 6.6953-2.2305 10.156-3.043 0.64062-0.83594 1.332-1.6289 2.0781-2.3711 4.293-4.293 10.23-6.9531 16.781-6.9531 6.5547 0 12.488 2.6602 16.781 6.9531s6.9531 10.23 6.9531 16.781c0 6.5547-2.6602 12.488-6.9531 16.781-2.9414 2.9414-6.6562 5.1172-10.812 6.1953zm-27.719-32.488c-2.0586 0.60547-4.0742 1.2773-6.0117 1.9219-1.0508 0.35156-2.082 0.69141-3.043 1.0039v39.848l1.8008-0.59766c9.8203-3.2734 21.43-7.1406 30.977-0.86719v-8.1445c-0.64844 0.054688-1.3047 0.082032-1.9688 0.082032-6.4883 0-12.379-2.6133-16.668-6.8477l-0.11328-0.10547c-0.33984-0.33984-0.67188-0.69141-0.99219-1.0547-1.1445 0.29297-2.3008 0.62891-3.4492 0.99219-1.4688 0.45703-3.0273 0.99219-4.5117 1.5039-1.043 0.35938-2.1797-0.19922-2.5391-1.2422-0.35938-1.043 0.19922-2.1797 1.2422-2.5391 1.4375-0.49219 2.9531-1.0117 4.6211-1.5312 0.6875-0.21484 1.3867-0.42578 2.0977-0.625-0.8125-1.3398-1.4961-2.7656-2.0312-4.2656l-0.78906 0.25781-2.6016 0.89453c-1.043 0.35938-2.1797-0.19922-2.5391-1.2422-0.35938-1.043 0.19922-2.1797 1.2422-2.5391l2.6484-0.89453 1.0117-0.33203c-0.23828-1.3516-0.36328-2.7422-0.36328-4.1602l0.007813-0.57812-2.0078 0.6875c-1.043 0.35938-2.1797-0.19922-2.5391-1.2422-0.35938-1.043 0.19922-2.1797 1.2422-2.5391l2.4297-0.82031 1.3828-0.44531c0.33594-1.5898 0.83203-3.1211 1.4688-4.5703zm-16.836 33.008c1.043 0.35938 1.6016 1.4961 1.2422 2.5391s-1.4961 1.6016-2.5391 1.2422c-3.7656-1.2969-8.0117-2.7383-12.008-3.3164-3.7656-0.54297-7.3672-0.33594-10.184 1.4922-0.92188 0.60156-2.1602 0.33594-2.7578-0.58594-0.60156-0.92188-0.33594-2.1602 0.58594-2.7578 3.7734-2.4531 8.2969-2.7695 12.918-2.1016 4.3906 0.63281 8.8164 2.1406 12.742 3.4883zm0-18.109c1.043 0.35937 1.6016 1.4961 1.2422 2.5391s-1.4961 1.6016-2.5391 1.2422c-3.7656-1.2969-8.0117-2.7383-12.008-3.3164-3.7656-0.54297-7.3672-0.33984-10.184 1.4922-0.92188 0.60156-2.1602 0.33594-2.7578-0.58594-0.60156-0.92188-0.33594-2.1602 0.58594-2.7578 3.7734-2.4531 8.2969-2.7695 12.918-2.1016 4.3906 0.63281 8.8164 2.1406 12.742 3.4883zm0 9.0547c1.043 0.35938 1.6016 1.4961 1.2422 2.5391-0.35938 1.043-1.4961 1.6016-2.5391 1.2422-3.7656-1.293-8.0117-2.7383-12.008-3.3164-3.7656-0.54297-7.3672-0.33984-10.184 1.4922-0.92188 0.60156-2.1602 0.33594-2.7578-0.58594-0.60156-0.92188-0.33594-2.1602 0.58594-2.7578 3.7734-2.4531 8.2969-2.7695 12.918-2.1016 4.3906 0.63281 8.8164 2.1367 12.742 3.4883zm0-18.109c1.043 0.35938 1.6016 1.4961 1.2422 2.5391-0.35938 1.043-1.4961 1.6016-2.5391 1.2422-3.7656-1.2969-8.0117-2.7383-12.008-3.3164-3.7656-0.54297-7.3672-0.33984-10.184 1.4922-0.92188 0.60156-2.1602 0.33594-2.7578-0.58594-0.60156-0.92188-0.33594-2.1602 0.58594-2.7578 3.7734-2.4531 8.2969-2.7695 12.918-2.1016 4.3906 0.63281 8.8164 2.1406 12.742 3.4883zm3.7773-2.9141c-0.96484-0.3125-2-0.65625-3.0547-1.0078-9.7383-3.2422-21.414-7.1289-29.723 0.40234v38.988c9.543-6.2734 21.152-2.4062 30.977 0.86719l1.7969 0.59766v-39.844z" fill="#ffbf31"></path></svg> 