<?xml version="1.0" encoding="UTF-8"?> <svg xmlns="http://www.w3.org/2000/svg" viewBox="0 0 100 100" fill-rule="evenodd"><path d="m85.066 62.164h-66.68c-2.3086 0-4.1992 1.8906-4.1992 4.1992v8.6523c0 2.3086 1.8906 4.1992 4.1992 4.1992h5.25v-9.4219h62.18v-6.8867c-0.003906-0.40625-0.33594-0.74219-0.75-0.74219zm-19.195-1.793c0.25-0.46875 0.39062-1.0039 0.39062-1.5664v-12.91c0-6.4062-5.6836-11.648-12.633-11.648h-7.2578c-6.9492 0-12.633 5.2422-12.633 11.648v12.914c0 0.56641 0.14062 1.0977 0.39062 1.5664h7.2969v-12.172c0-0.49609 0.40234-0.89453 0.89453-0.89453 0.49609 0 0.89453 0.40234 0.89453 0.89453v12.172h13.57v-12.172c0-0.49609 0.40234-0.89453 0.89453-0.89453 0.49609 0 0.89453 0.40234 0.89453 0.89453v12.172zm-15.871-45.922c4.4531 0 8.0625 3.6094 8.0625 8.0625s-3.6094 8.0625-8.0625 8.0625-8.0625-3.6094-8.0625-8.0625 3.6094-8.0625 8.0625-8.0625zm-24.574 57.137h10.059v13.52c0 0.38281-0.44922 0.58984-0.73828 0.33984l-4.2891-3.6758-4.2891 3.6758c-0.28906 0.25-0.73828 0.042969-0.73828-0.33984zm11.848 7.6328v-7.6328h48.539v6.8867c0 0.41016-0.33594 0.74609-0.74609 0.74609z" fill-rule="evenodd" fill="#333333"></path></svg> 