<?xml version="1.0" encoding="UTF-8"?> <svg xmlns="http://www.w3.org/2000/svg" xmlns:xlink="http://www.w3.org/1999/xlink" version="1.1" width="1000px" height="1000px" viewBox="0,0,256,256"><g fill="#ffbf31" fill-rule="nonzero" stroke="none" stroke-width="1" stroke-linecap="butt" stroke-linejoin="miter" stroke-miterlimit="10" stroke-dasharray="" stroke-dashoffset="0" font-family="none" font-weight="none" font-size="none" text-anchor="none" style="mix-blend-mode: normal"><g transform="scale(0.256,0.256)"><g><path d="M511.3,306.9v-0.2c-102.6,-5.3 -182.5,65.7 -200.2,177c-14.6,92.2 11.3,204.4 33.4,210.2c10.6,2.6 37.2,-19 53.8,-35.6c27.5,19 59.4,30.4 92.7,33c106.3,5.1 197.1,-75.8 204.2,-182c4.2,-106.2 -77.6,-196.3 -183.9,-202.4z"></path><path d="M634.4,0h-1.8h-95.3h-171.7c-301.1,0 -365.6,64.6 -365.6,365.6v268.8c0,301.1 64.6,365.6 365.6,365.6h171.7h95.3h1.8c301.1,0 365.6,-64.6 365.6,-365.6v-268.8c0,-301.1 -64.6,-365.6 -365.6,-365.6zM508.2,878.3c-75,0 -109.9,-10.9 -170.5,-54.7c-38.3,49.3 -159.7,87.8 -165,21.9c0,-49.5 -10.9,-91.2 -23.4,-136.9c-14.8,-56.2 -31.6,-118.8 -31.6,-209.5c0,-216.6 177.8,-379.6 388.4,-379.6c210.8,0 375.9,171 375.9,381.6c0.9,207.4 -166.4,376.1 -373.8,377.2z"></path></g></g></g></svg> 