<?xml version="1.0" encoding="UTF-8"?> <svg xmlns="http://www.w3.org/2000/svg" viewBox="0 0 100 100" fill-rule="evenodd"><path d="m50 0c-13.262 0-25.98 5.2695-35.355 14.645-9.375 9.3789-14.645 22.094-14.645 35.355s5.2695 25.98 14.645 35.355 22.094 14.645 35.355 14.645 25.977-5.2695 35.355-14.645c9.375-9.375 14.645-22.094 14.645-35.355s-5.2695-25.977-14.645-35.355c-9.3789-9.375-22.094-14.645-35.355-14.645zm24.91 68.43-5.7578 5.7578-0.027344-0.015625c-5.5234 4.6641-19.121-0.78906-30.812-12.484-11.691-11.691-17.145-25.289-12.484-30.812l-0.015625-0.027344 5.7578-5.7578c1.2383-1.2344 3.2422-1.2344 4.4766 0l8.2891 8.2891v0.003906c1.2383 1.2344 1.2383 3.2383 0 4.4766l-6.168 6.168v-0.003906c4.7227 7.0352 10.773 13.086 17.809 17.809l6.168-6.168h-0.003906c1.2383-1.2383 3.2422-1.2383 4.4766 0l8.2891 8.2891h0.003906c1.2344 1.2344 1.2344 3.2383 0 4.4766z" fill="#000000"></path></svg> 