<?xml version="1.0" encoding="UTF-8"?> <svg xmlns="http://www.w3.org/2000/svg" viewBox="0 0 100 100" fill-rule="evenodd"><path d="m67.633 52.414c3.3086-3.3086 7.8789-5.3555 12.926-5.3555s9.6172 2.0469 12.926 5.3555c3.3086 3.3086 5.3555 7.8789 5.3555 12.926v9.8906c0 1.6562-1.3438 3-3 3h-91.676c-1.6562 0-3-1.3438-3-3v-9.8906c0-5.0469 2.0469-9.6172 5.3555-12.926 3.3086-3.3086 7.8789-5.3555 12.926-5.3555 5.0469 0 9.6172 2.0469 12.926 5.3555 0.87891 0.87891 1.668 1.8477 2.3555 2.8867 0.6875-1.043 1.4766-2.0078 2.3555-2.8867 3.3086-3.3086 7.8789-5.3555 12.926-5.3555 5.0469 0 9.6172 2.0469 12.926 5.3555 0.87891 0.87891 1.668 1.8477 2.3555 2.8867 0.6875-1.043 1.4766-2.0078 2.3555-2.8867zm-8.9492 4.2422c-2.2188-2.2188-5.293-3.5977-8.6836-3.5977s-6.4648 1.375-8.6836 3.5977c-2.2188 2.2188-3.5977 5.293-3.5977 8.6836v6.8906h24.559v-6.8906c0-3.3906-1.375-6.4609-3.5977-8.6836zm-8.6836-28.887c-1.5078 0-2.8789 0.61328-3.8672 1.6016-0.98828 0.98828-1.6016 2.3594-1.6016 3.8672 0 1.5078 0.61328 2.8789 1.6016 3.8672l0.125 0.13281c0.97266 0.91016 2.2891 1.4688 3.7422 1.4688 1.5195 0 2.8867-0.60938 3.8711-1.5938 0.98828-0.98438 1.5938-2.3555 1.5938-3.8711 0-1.5195-0.60938-2.8867-1.5938-3.8711-0.98438-0.98828-2.3555-1.5938-3.8711-1.5938zm-8.1094-2.6406c2.0742-2.0742 4.9414-3.3594 8.1094-3.3594 3.1484 0 6.0078 1.2812 8.0938 3.3594 2.0898 2.0938 3.3711 4.957 3.3711 8.1094 0 3.1484-1.2812 6.0078-3.3594 8.0938-2.0938 2.0898-4.957 3.3711-8.1094 3.3711-3.0586 0-5.8516-1.2109-7.9141-3.1836l-0.19531-0.17578c-2.0742-2.0742-3.3594-4.9414-3.3594-8.1094 0-3.1641 1.2852-6.0352 3.3594-8.1094zm30.559 0c2.0742-2.0742 4.9414-3.3594 8.1094-3.3594 3.168 0 6.0352 1.2852 8.1094 3.3594 2.0742 2.0859 3.3594 4.9531 3.3594 8.1094 0 3.1484-1.2812 6.0078-3.3594 8.0938-2.0938 2.0898-4.957 3.3711-8.1094 3.3711-3.0586 0-5.8516-1.2109-7.9141-3.1836l-0.19531-0.17578c-2.0742-2.0742-3.3594-4.9414-3.3594-8.1094 0-3.1641 1.2852-6.0352 3.3594-8.1094zm-61.121 0.015625c2.0938-2.0898 4.957-3.375 8.1133-3.375 3.168 0 6.0352 1.2852 8.1094 3.3594 2.0742 2.0859 3.3594 4.9531 3.3594 8.1094 0 3.1484-1.2812 6.0078-3.3594 8.0938-2.0938 2.0898-4.957 3.3711-8.1094 3.3711-3.1484 0-6.0078-1.2812-8.0938-3.3594-2.0898-2.0938-3.3711-4.957-3.3711-8.1094 0-3.1484 1.2812-6.0078 3.3555-8.0898z" fill="#ffbf31"></path></svg> 