<?xml version="1.0" encoding="UTF-8"?> <svg xmlns="http://www.w3.org/2000/svg" viewBox="0 0 100.00 100.00" data-guides="{&quot;vertical&quot;:[],&quot;horizontal&quot;:[]}"><defs></defs><path fill="#ffbf31" stroke="none" fill-opacity="1" stroke-width="1" stroke-opacity="1" alignment-baseline="baseline" baseline-shift="baseline" color="rgb(51, 51, 51)" fill-rule="evenodd" x="0" y="0" width="100" height="100" rx="50" ry="50" id="tSvgdc8aaa9c9c" title="Rectangle 7" d="M0 20C0 8.9543 8.9543 0 20 0C40 0 60 0 80 0C91.0457 0 100 8.9543 100 20C100 40 100 60 100 80C100 91.0457 91.0457 100 80 100C60 100 40 100 20 100C8.9543 100 0 91.0457 0 80C0 60 0 40 0 20Z" style="transform-origin: -5900px -4900px;"></path><path fill="#333333" stroke="none" fill-opacity="1" stroke-width="1" stroke-opacity="1" alignment-baseline="baseline" baseline-shift="baseline" color="rgb(51, 51, 51)" fill-rule="evenodd" id="tSvge11d698379" title="Path 7" d="M46.2778 49.2064C52.0728 49.2064 56.8314 44.5099 56.8314 38.6528C56.8314 37.2493 56.5883 35.9078 56.0999 34.6878C53.2937 35.5218 50.4875 36.3558 47.6813 37.1898C47.2547 37.3113 46.8282 37.3732 46.4613 37.3732C46.0943 37.3732 45.6082 37.3113 45.2413 37.1898C42.3739 36.3359 39.5065 35.4821 36.639 34.6282C36.1506 35.8482 35.8456 37.1898 35.8456 38.5932C35.7264 44.4478 40.4229 49.206 46.2778 49.2064Z"></path><path fill="#333333" stroke="none" fill-opacity="1" stroke-width="1" stroke-opacity="1" alignment-baseline="baseline" baseline-shift="baseline" color="rgb(51, 51, 51)" fill-rule="evenodd" id="tSvg46e23dd4e8" title="Path 8" d="M45.4872 36.0322C46.0972 36.2157 46.7072 36.2157 47.3172 36.0322C50.2656 35.1577 53.2139 34.2832 56.1622 33.4087C56.2837 33.3468 56.4053 33.2253 56.4053 33.1037C56.4053 31.6804 56.4053 30.2571 56.4053 28.8337C53.3553 29.7487 50.3053 30.6637 47.2553 31.5787C46.9503 31.6407 46.6453 31.7003 46.3403 31.7003C46.0353 31.7003 45.7303 31.6383 45.4253 31.5787C42.4365 30.6844 39.4477 29.79 36.4589 28.8957C36.4589 30.2984 36.4589 31.7011 36.4589 33.1037C36.4589 33.2253 36.5208 33.3468 36.7019 33.4087C39.6304 34.2832 42.5588 35.1577 45.4872 36.0322Z"></path><path fill="#333333" stroke="none" fill-opacity="1" stroke-width="1" stroke-opacity="1" alignment-baseline="baseline" baseline-shift="baseline" color="rgb(51, 51, 51)" fill-rule="evenodd" id="tSvg12b1765412b" title="Path 9" d="M31.2782 26.1612C36.097 27.5845 40.9158 29.0078 45.7346 30.4312C46.1016 30.5527 46.4661 30.5527 46.8331 30.4312C50.9807 29.1905 55.1283 27.9499 59.2759 26.7092C59.2759 28.397 59.2759 30.0849 59.2759 31.7727C59.0328 31.8346 58.8493 32.0777 58.8493 32.3207C58.8493 32.4836 58.8493 32.6464 58.8493 32.8092C58.8493 33.0523 59.0328 33.2977 59.2759 33.3573C59.032 33.9061 58.7882 34.4549 58.5444 35.0038C58.4824 35.1873 58.6063 35.3707 58.7874 35.4303C58.9907 35.451 59.1941 35.4716 59.3974 35.4923C59.5197 35.4923 59.642 35.4923 59.7644 35.4923C59.9677 35.4716 60.171 35.451 60.3744 35.4303C60.5578 35.4303 60.6794 35.1873 60.6174 35.0038C60.3736 34.4549 60.1297 33.9061 59.8859 33.3573C60.1289 33.2953 60.3124 33.0523 60.3124 32.8092C60.3124 32.6464 60.3124 32.4836 60.3124 32.3207C60.3124 32.0777 60.1289 31.8323 59.8859 31.7727C59.8859 30.0237 59.8859 28.2747 59.8859 26.5257C60.3537 26.3835 60.8216 26.2414 61.2894 26.0992C61.6563 25.9777 61.6563 25.4892 61.2894 25.3677C56.4706 23.9443 51.6518 22.521 46.833 21.0977C46.466 20.9762 46.1015 20.9762 45.7345 21.0977C40.9157 22.521 36.0969 23.9443 31.2781 25.3677C30.9112 25.4916 30.9112 26.0397 31.2782 26.1612Z" style=""></path><path fill="#333333" stroke="none" fill-opacity="1" stroke-width="1" stroke-opacity="1" alignment-baseline="baseline" baseline-shift="baseline" color="rgb(51, 51, 51)" fill-rule="evenodd" id="tSvg9ba654d432" title="Path 10" d="M48.9014 61.8328C48.9014 61.5683 48.9014 61.3038 48.9014 61.0393C48.9014 60.5508 49.0849 60.1243 49.4494 59.8813C49.6925 59.6382 50.0594 59.5143 50.4264 59.5143C50.5281 59.5143 50.6297 59.5143 50.7314 59.5143C54.1269 60.226 57.5223 60.9376 60.9178 61.6493C62.2188 61.3848 63.5198 61.1203 64.8208 60.8558C64.4539 57.4389 64.1489 54.1458 63.9678 52.8044C63.6009 49.6925 62.1378 47.741 59.3928 47.741C58.4985 47.741 57.6041 47.741 56.7098 47.741C56.2833 47.741 55.9163 47.9244 55.6113 48.1675C53.1713 50.486 49.8163 51.8895 46.2185 51.8895C42.5585 51.8895 39.2657 50.486 36.8257 48.1675C36.5207 47.9244 36.1538 47.741 35.7272 47.741C34.8329 47.741 33.9386 47.741 33.0442 47.741C30.2992 47.741 28.7742 49.6329 28.4692 52.8044C28.1023 55.976 26.7012 70.3108 26.7012 70.3108C26.8227 72.5673 28.2882 74.5189 30.4827 75.2528C34.5692 76.5943 41.5841 77.3258 46.2805 77.3258C46.6872 77.3258 47.0938 77.3258 47.5005 77.3258C47.5005 77.2647 47.5005 77.2035 47.5005 77.1424C47.5005 72.5061 47.5005 67.8699 47.5005 63.2337C47.5005 62.4403 48.1105 61.8303 48.842 61.8303C48.842 61.8326 48.9016 61.8326 48.9014 61.8328Z"></path><path fill="#000000" stroke="none" fill-opacity="1" stroke-width="1" stroke-opacity="1" alignment-baseline="baseline" baseline-shift="baseline" color="rgb(51, 51, 51)" fill-rule="evenodd" id="tSvg11a93142e67" title="Path 11" d="M52.1972 63.9678C53.3561 64.2116 54.5149 64.4555 55.6737 64.6993C56.8326 64.9233 57.9914 65.1473 59.1502 65.3713C59.1709 65.3713 59.1915 65.3713 59.2122 65.3713C59.3337 65.3713 59.5172 65.2497 59.5172 65.1282C59.5791 64.9447 59.4552 64.7613 59.2741 64.7613C58.1153 64.5373 56.9565 64.3133 55.7976 64.0893C54.6388 63.8455 53.48 63.6016 52.3211 63.3578C52.1376 63.2958 51.9542 63.4197 51.9542 63.6008C51.8922 63.7867 52.0137 63.9082 52.1972 63.9678Z"></path><path fill="#000000" stroke="none" fill-opacity="1" stroke-width="1" stroke-opacity="1" alignment-baseline="baseline" baseline-shift="baseline" color="rgb(51, 51, 51)" fill-rule="evenodd" id="tSvg9726c3dff" title="Path 12" d="M52.1972 65.555C53.3561 65.7988 54.5149 66.0427 55.6737 66.2865C56.8326 66.5105 57.9914 66.7345 59.1502 66.9585C59.1709 66.9585 59.1915 66.9585 59.2122 66.9585C59.3337 66.9585 59.5172 66.837 59.5172 66.7154C59.5791 66.532 59.4552 66.3485 59.2741 66.3485C58.1153 66.1245 56.9565 65.9005 55.7976 65.6765C54.6388 65.4327 53.48 65.1888 52.3211 64.945C52.1376 64.883 51.9542 65.007 51.9542 65.188C51.8922 65.3715 52.0137 65.555 52.1972 65.555Z"></path><path fill="#000000" stroke="none" fill-opacity="1" stroke-width="1" stroke-opacity="1" alignment-baseline="baseline" baseline-shift="baseline" color="rgb(51, 51, 51)" fill-rule="evenodd" id="tSvg3a6d22f514" title="Path 13" d="M52.1972 67.2014C53.3561 67.4452 54.5149 67.6891 55.6737 67.9329C56.8326 68.1569 57.9914 68.3809 59.1502 68.6049C59.1709 68.6049 59.1915 68.6049 59.2122 68.6049C59.3337 68.6049 59.5172 68.4834 59.5172 68.3618C59.5791 68.1784 59.4552 67.9949 59.2741 67.9949C58.1153 67.7709 56.9565 67.5469 55.7976 67.3229C54.6388 67.0791 53.48 66.8352 52.3211 66.5914C52.1376 66.5294 51.9542 66.6533 51.9542 66.8344C51.8922 67.0179 52.0137 67.1418 52.1972 67.2014Z"></path><path fill="#000000" stroke="none" fill-opacity="1" stroke-width="1" stroke-opacity="1" alignment-baseline="baseline" baseline-shift="baseline" color="rgb(51, 51, 51)" fill-rule="evenodd" id="tSvg8de45fc82b" title="Path 14" d="M52.1972 68.7886C53.3561 69.0324 54.5149 69.2763 55.6737 69.5201C56.8326 69.7441 57.9914 69.9681 59.1502 70.1921C59.1709 70.1921 59.1915 70.1921 59.2122 70.1921C59.3337 70.1921 59.5172 70.0706 59.5172 69.949C59.5791 69.7656 59.4552 69.5821 59.2741 69.5821C58.1153 69.3581 56.9565 69.1341 55.7976 68.9101C54.6388 68.6663 53.48 68.4224 52.3211 68.1786C52.1376 68.1167 51.9542 68.2406 51.9542 68.4217C51.8922 68.6051 52.0137 68.7886 52.1972 68.7886Z"></path><path fill="#000000" stroke="none" fill-opacity="1" stroke-width="1" stroke-opacity="1" alignment-baseline="baseline" baseline-shift="baseline" color="rgb(51, 51, 51)" fill-rule="evenodd" id="tSvg162690659d2" title="Path 15" d="M52.1972 70.435C53.3561 70.6788 54.5149 70.9227 55.6737 71.1665C56.8326 71.3905 57.9914 71.6145 59.1502 71.8385C59.1709 71.8385 59.1915 71.8385 59.2122 71.8385C59.3337 71.8385 59.5172 71.717 59.5172 71.5954C59.5791 71.412 59.4552 71.2285 59.2741 71.2285C58.1153 71.0045 56.9565 70.7805 55.7976 70.5565C54.6388 70.3127 53.48 70.0688 52.3211 69.825C52.1376 69.763 51.9542 69.887 51.9542 70.068C51.8922 70.2515 52.0137 70.373 52.1972 70.435Z"></path><path fill="#000000" stroke="none" fill-opacity="1" stroke-width="1" stroke-opacity="1" alignment-baseline="baseline" baseline-shift="baseline" color="rgb(51, 51, 51)" fill-rule="evenodd" id="tSvg61f9c35ab1" title="Path 16" d="M52.1972 72.0222C53.3561 72.2661 54.5149 72.5099 55.6737 72.7537C56.8326 72.9777 57.9914 73.2017 59.1502 73.4257C59.1709 73.4257 59.1915 73.4257 59.2122 73.4257C59.3337 73.4257 59.5172 73.3042 59.5172 73.1827C59.5791 72.9992 59.4552 72.8157 59.2741 72.8157C58.1153 72.5917 56.9565 72.3677 55.7976 72.1437C54.6388 71.8999 53.48 71.6561 52.3211 71.4122C52.1376 71.3503 51.9542 71.4742 51.9542 71.6553C51.8922 71.8387 52.0137 72.0222 52.1972 72.0222Z"></path><path fill="#000000" stroke="none" fill-opacity="1" stroke-width="1" stroke-opacity="1" alignment-baseline="baseline" baseline-shift="baseline" color="rgb(51, 51, 51)" fill-rule="evenodd" id="tSvgfdba26c0c6" title="Path 17" d="M52.1972 73.6686C53.3561 73.9124 54.5149 74.1563 55.6737 74.4001C56.8326 74.6241 57.9914 74.8481 59.1502 75.0721C59.1709 75.0721 59.1915 75.0721 59.2122 75.0721C59.3337 75.0721 59.5172 74.9506 59.5172 74.829C59.5791 74.6456 59.4552 74.4621 59.2741 74.4621C58.1153 74.2381 56.9565 74.0141 55.7976 73.7901C54.6388 73.5463 53.48 73.3024 52.3211 73.0586C52.1376 72.9967 51.9542 73.1206 51.9542 73.3017C51.8922 73.4851 52.0137 73.6067 52.1972 73.6686Z"></path><path fill="#333333" stroke="none" fill-opacity="1" stroke-width="1" stroke-opacity="1" alignment-baseline="baseline" baseline-shift="baseline" color="rgb(51, 51, 51)" fill-rule="evenodd" id="tSvg11a75291e08" title="Path 18" d="M73.0586 63.0528C72.6321 63.0528 72.2056 62.9908 71.7766 62.9908C71.7766 62.3403 71.7766 61.6898 71.7766 61.0393C71.7766 60.9178 71.7147 60.8558 71.6551 60.7963C71.5932 60.7343 71.4716 60.7343 71.4121 60.7343C67.9347 61.446 64.4572 62.1576 60.9798 62.8693C57.5024 62.1576 54.025 61.446 50.5476 60.7343C50.4261 60.7343 50.3641 60.7343 50.3046 60.7963C50.2426 60.8582 50.183 60.9797 50.183 61.0393C50.183 61.6898 50.183 62.3403 50.183 62.9908C49.7565 62.9908 49.33 62.9908 48.963 63.0528C48.8415 63.0528 48.7796 63.1743 48.7796 63.2958C48.7796 67.932 48.7796 72.5682 48.7796 77.2044C48.7796 77.2664 48.7796 77.326 48.8415 77.3879C48.9035 77.4499 48.963 77.4499 49.025 77.4499C52.99 77.2664 56.955 77.7549 60.6772 78.9129C60.7995 78.9534 60.9219 78.9939 61.0442 79.0344C61.0648 79.0344 61.0855 79.0344 61.1061 79.0344C61.1268 79.0344 61.1474 79.0344 61.1681 79.0344C61.2904 78.9939 61.4127 78.9534 61.535 78.9129C65.3165 77.7549 69.2222 77.2664 73.1872 77.4499C73.2492 77.4499 73.3088 77.4499 73.3707 77.3879C73.4327 77.326 73.4327 77.2664 73.4327 77.2044C73.4327 72.5682 73.4327 67.932 73.4327 63.2958C73.242 63.1147 73.1801 63.0528 73.0586 63.0528ZM60.6134 77.023C57.3196 76.3518 54.0258 75.6807 50.732 75.0095C50.732 70.4957 50.732 65.9819 50.732 61.4681C54.0258 62.1393 57.3196 62.8104 60.6134 63.4816C60.6134 67.9954 60.6134 72.5092 60.6134 77.023ZM71.1072 75.0095C67.8134 75.6807 64.5196 76.3518 61.2258 77.023C61.2258 72.5092 61.2258 67.9954 61.2258 63.4816C64.5196 62.8104 67.8134 62.1393 71.1072 61.4681C71.1072 65.9819 71.1072 70.4957 71.1072 75.0095Z"></path><path fill="#000000" stroke="none" fill-opacity="1" stroke-width="1" stroke-opacity="1" alignment-baseline="baseline" baseline-shift="baseline" color="rgb(51, 51, 51)" fill-rule="evenodd" id="tSvg93160bcbe9" title="Path 19" d="M62.7478 65.3714C62.7684 65.3714 62.7891 65.3714 62.8097 65.3714C63.9686 65.1474 65.1274 64.9234 66.2862 64.6994C67.4451 64.4556 68.6039 64.2117 69.7628 63.9679C69.9462 63.906 70.0678 63.7844 70.0058 63.601C69.9439 63.4175 69.8223 63.296 69.6389 63.3579C68.48 63.6017 67.3212 63.8456 66.1623 64.0894C65.0035 64.3134 63.8447 64.5374 62.6858 64.7614C62.5024 64.8233 62.3808 64.9449 62.4428 65.1283C62.4428 65.2499 62.6263 65.3714 62.7478 65.3714Z"></path><path fill="#000000" stroke="none" fill-opacity="1" stroke-width="1" stroke-opacity="1" alignment-baseline="baseline" baseline-shift="baseline" color="rgb(51, 51, 51)" fill-rule="evenodd" id="tSvgb2900ebdd1" title="Path 20" d="M62.7478 66.9586C62.7684 66.9586 62.7891 66.9586 62.8097 66.9586C63.9686 66.7346 65.1274 66.5106 66.2862 66.2866C67.4451 66.0428 68.6039 65.799 69.7628 65.5551C69.9462 65.4932 70.0678 65.3716 70.0058 65.1882C69.9439 65.0047 69.8223 64.8832 69.6389 64.9451C68.48 65.189 67.3212 65.4328 66.1623 65.6766C65.0035 65.9006 63.8447 66.1246 62.6858 66.3486C62.5024 66.4106 62.3808 66.5321 62.4428 66.7156C62.4428 66.8967 62.6263 66.9586 62.7478 66.9586Z"></path><path fill="#000000" stroke="none" fill-opacity="1" stroke-width="1" stroke-opacity="1" alignment-baseline="baseline" baseline-shift="baseline" color="rgb(51, 51, 51)" fill-rule="evenodd" id="tSvg650b574d91" title="Path 21" d="M62.7478 68.605C62.7684 68.605 62.7891 68.605 62.8097 68.605C63.9686 68.381 65.1274 68.157 66.2862 67.933C67.4451 67.6892 68.6039 67.4453 69.7628 67.2015C69.9462 67.1396 70.0678 67.018 70.0058 66.8346C69.9439 66.6511 69.8223 66.5296 69.6389 66.5915C68.48 66.8353 67.3212 67.0792 66.1623 67.323C65.0035 67.547 63.8447 67.771 62.6858 67.995C62.5024 68.057 62.3808 68.1785 62.4428 68.362C62.4428 68.4835 62.6263 68.605 62.7478 68.605Z"></path><path fill="#000000" stroke="none" fill-opacity="1" stroke-width="1" stroke-opacity="1" alignment-baseline="baseline" baseline-shift="baseline" color="rgb(51, 51, 51)" fill-rule="evenodd" id="tSvge836c5e8ff" title="Path 22" d="M62.7478 70.1922C62.7684 70.1922 62.7891 70.1922 62.8097 70.1922C63.9686 69.9682 65.1274 69.7442 66.2862 69.5202C67.4451 69.2764 68.6039 69.0326 69.7628 68.7887C69.9462 68.7268 70.0678 68.6053 70.0058 68.4218C69.9439 68.2383 69.8223 68.1168 69.6389 68.1787C68.48 68.4226 67.3212 68.6664 66.1623 68.9102C65.0035 69.1342 63.8447 69.3582 62.6858 69.5822C62.5024 69.6442 62.3808 69.7657 62.4428 69.9492C62.4428 70.1303 62.6263 70.1922 62.7478 70.1922Z"></path><path fill="#000000" stroke="none" fill-opacity="1" stroke-width="1" stroke-opacity="1" alignment-baseline="baseline" baseline-shift="baseline" color="rgb(51, 51, 51)" fill-rule="evenodd" id="tSvg81b498d900" title="Path 23" d="M62.7478 71.8386C62.7684 71.8386 62.7891 71.8386 62.8097 71.8386C63.9686 71.6146 65.1274 71.3906 66.2862 71.1666C67.4451 70.9228 68.6039 70.679 69.7628 70.4351C69.9462 70.3732 70.0678 70.2516 70.0058 70.0682C69.9439 69.8847 69.8223 69.7632 69.6389 69.8251C68.48 70.069 67.3212 70.3128 66.1623 70.5566C65.0035 70.7806 63.8447 71.0046 62.6858 71.2286C62.5024 71.2906 62.3808 71.4121 62.4428 71.5956C62.4428 71.7171 62.6263 71.8386 62.7478 71.8386Z"></path><path fill="#000000" stroke="none" fill-opacity="1" stroke-width="1" stroke-opacity="1" alignment-baseline="baseline" baseline-shift="baseline" color="rgb(51, 51, 51)" fill-rule="evenodd" id="tSvgc5679c76f6" title="Path 24" d="M62.7478 73.4228C62.7684 73.4228 62.7891 73.4228 62.8097 73.4228C63.9686 73.1988 65.1274 72.9748 66.2862 72.7508C67.4451 72.507 68.6039 72.2631 69.7628 72.0193C69.9462 71.9573 70.0678 71.8358 70.0058 71.6523C69.9439 71.4689 69.8223 71.3473 69.6389 71.4093C68.48 71.6531 67.3212 71.897 66.1623 72.1408C65.0035 72.3648 63.8447 72.5888 62.6858 72.8128C62.5024 72.8747 62.3808 72.9963 62.4428 73.1797C62.4428 73.3632 62.5667 73.4228 62.7478 73.4228Z"></path><path fill="#000000" stroke="none" fill-opacity="1" stroke-width="1" stroke-opacity="1" alignment-baseline="baseline" baseline-shift="baseline" color="rgb(51, 51, 51)" fill-rule="evenodd" id="tSvg17448cbe644" title="Path 25" d="M62.7478 75.0722C62.7684 75.0722 62.7891 75.0722 62.8097 75.0722C63.9686 74.8482 65.1274 74.6242 66.2862 74.4002C67.4451 74.1564 68.6039 73.9126 69.7628 73.6687C69.9462 73.6068 70.0678 73.4853 70.0058 73.3018C69.9439 73.1183 69.8223 72.9968 69.6389 73.0587C68.48 73.3026 67.3212 73.5464 66.1623 73.7902C65.0035 74.0142 63.8447 74.2382 62.6858 74.4622C62.5024 74.5242 62.3808 74.6457 62.4428 74.8292C62.4428 74.9483 62.5667 75.0722 62.7478 75.0722Z"></path></svg> 