<?xml version="1.0" encoding="UTF-8"?> <svg xmlns="http://www.w3.org/2000/svg" viewBox="0 0 100.00 100.00" data-guides="{&quot;vertical&quot;:[],&quot;horizontal&quot;:[]}"><defs></defs><path fill="#ffbf31" stroke="none" fill-opacity="1" stroke-width="1" stroke-opacity="1" alignment-baseline="baseline" baseline-shift="baseline" color="rgb(51, 51, 51)" fill-rule="evenodd" x="0" y="0" width="100" height="100" rx="50" ry="50" id="tSvg1791be5b0ce" title="Rectangle 6" d="M0.0002 19.7C0.0002 8.6543 8.9545 -0.3 20.0002 -0.3C40.0002 -0.3 60.0002 -0.3 80.0002 -0.3C91.0459 -0.3 100.0002 8.6543 100.0002 19.7C100.0002 39.7 100.0002 59.7 100.0002 79.7C100.0002 90.7456 91.0459 99.7 80.0002 99.7C60.0002 99.7 40.0002 99.7 20.0002 99.7C8.9545 99.7 0.0002 90.7456 0.0002 79.7C0.0002 59.7 0.0002 39.7 0.0002 19.7Z" style="transform-origin: -5900px -4900.3px;"></path><path fill="#333333" stroke="none" fill-opacity="1" stroke-width="1" stroke-opacity="1" alignment-baseline="baseline" baseline-shift="baseline" color="rgb(51, 51, 51)" fill-rule="evenodd" id="tSvgf87dabcb7d" title="Path 6" d="M71.612 25.4C57.2042 25.4 42.7964 25.4 28.3886 25.4C26.7433 25.4 25.4003 26.743 25.4003 28.3883C25.4003 36.4501 25.4003 44.5119 25.4003 52.5737C26.4738 51.4581 27.8472 50.6424 29.3964 50.251C27.6808 48.7159 26.6003 46.4776 26.6003 44.0002C26.6003 39.369 30.369 35.6002 35.0003 35.6002C39.6316 35.6002 43.4003 39.369 43.4003 44.0002C43.4003 46.3464 42.4347 48.4768 40.8738 50.0002C45.0034 50.0002 49.133 50.0002 53.2626 50.0002C54.6024 46.6526 55.9422 43.305 57.2821 39.9574C57.5282 39.3387 58.2243 39.0387 58.843 39.2848C59.4618 39.5308 59.7618 40.2316 59.5157 40.8457C58.2399 44.0371 56.9641 47.2285 55.6884 50.4199C57.6313 51.2356 59.0001 53.1621 59.0001 55.4004C59.0001 58.377 56.5766 60.8004 53.6001 60.8004C50.6001 60.8067 47.6001 60.8129 44.6001 60.8192C44.6001 62.6129 44.6001 64.4067 44.6001 66.2005C53.6041 66.2005 62.6081 66.2005 71.6121 66.2005C73.255 66.2005 74.6004 64.8575 74.6004 63.2121C74.6004 51.6043 74.6004 39.9965 74.6004 28.3888C74.6004 26.7434 73.2574 25.4005 71.612 25.4ZM52.4 42.8C50.8 42.8 49.2 42.8 47.6 42.8C46.939 42.8 46.4 42.2609 46.4 41.6C46.4 40.9391 46.9391 40.4 47.6 40.4C49.2 40.4 50.8 40.4 52.4 40.4C53.061 40.4 53.6 40.9391 53.6 41.6C53.6 42.2609 53.0609 42.8 52.4 42.8ZM68 59.6C65.6 59.6 63.2 59.6 60.8 59.6C60.139 59.6 59.6 59.0609 59.6 58.4C59.6 57.7391 60.1391 57.2 60.8 57.2C63.2 57.2 65.6 57.2 68 57.2C68.661 57.2 69.2 57.7391 69.2 58.4C69.2 59.0609 68.6609 59.6 68 59.6ZM68 51.2C65.6 51.2 63.2 51.2 60.8 51.2C60.139 51.2 59.6 50.6609 59.6 50C59.6 49.3391 60.1391 48.8 60.8 48.8C63.2 48.8 65.6 48.8 68 48.8C68.661 48.8 69.2 49.3391 69.2 50C69.2 50.6609 68.6609 51.2 68 51.2ZM68 42.8C66.4 42.8 64.8 42.8 63.2 42.8C62.539 42.8 62 42.2609 62 41.6C62 40.9391 62.5391 40.4 63.2 40.4C64.8 40.4 66.4 40.4 68 40.4C68.661 40.4 69.2 40.9391 69.2 41.6C69.2 42.2609 68.6609 42.8 68 42.8ZM68 34.4C59.2 34.4 50.4 34.4 41.6 34.4C40.939 34.4 40.4 33.8609 40.4 33.2C40.4 32.5391 40.9391 32 41.6 32C50.4 32 59.2 32 68 32C68.661 32 69.2 32.5391 69.2 33.2C69.2 33.8609 68.6609 34.4 68 34.4ZM44.6186 58.4C43.2803 58.4 42.1999 59.4805 42.1999 60.8187C42.1999 65.2125 42.1999 69.6063 42.1999 74.0001C36.5999 74.0001 30.9999 74.0001 25.3999 74.0001C25.3999 68.8205 25.3999 63.6409 25.3999 58.4613C25.3999 55.1121 28.1116 52.4001 31.4611 52.4001C38.8407 52.4001 46.2203 52.4001 53.5999 52.4001C54.0264 52.4001 54.4272 52.4892 54.7929 52.6462C55.8569 53.1079 56.5999 54.1697 56.5999 55.4001C56.5999 57.0571 55.2569 58.4001 53.5999 58.4001C50.6061 58.4001 47.6124 58.4 44.6186 58.4ZM35 50C31.6883 50 29 47.3117 29 44C29 40.6883 31.6883 38 35 38C38.3117 38 41 40.6883 41 44C41 47.3117 38.3117 50 35 50Z"></path></svg> 