<?xml version="1.0" encoding="UTF-8"?> <svg xmlns="http://www.w3.org/2000/svg" viewBox="0 0 100 100" fill-rule="evenodd"><rect x="0" y="0" width="100" height="100" fill="#ffbf31" rx="20" ry="20"></rect><g style="transform-origin: center center; transform: scale(0.6);"><path d="m49.996 2.7773c-9.5664 0-17.312 7.7383-17.312 17.301 0 9.5664 7.7461 17.305 17.312 17.305 9.5703 0 17.301-7.7383 17.301-17.305 0-9.5625-7.7266-17.301-17.301-17.301zm0 36.598c-7.8867 0-14.828 3.5547-19.66 9.0117h10.078c4.2891 0 7.9219 2.8125 9.5859 6.7422 1.6641-3.9258 5.293-6.7422 9.582-6.7422h10.031c-4.8281-5.4727-11.75-9.0117-19.617-9.0117zm-32.684 11.008v11.984c4.5078 0.52344 8.0703 4.2344 8.0703 8.8672 0 4.6367-3.5664 8.3438-8.0703 8.8672v11.984h23.102c3.6406 0 6.6836 2.1289 8.5859 5.1367v-37.414c0-5.2227-3.9062-9.4258-8.5859-9.4258zm42.27 0c-4.6797 0-8.5898 4.2031-8.5898 9.4258v37.414c1.9023-3.0117 4.9453-5.1406 8.5898-5.1406h23.098v-11.984c-4.5078-0.52344-8.0703-4.2266-8.0703-8.8672 0-4.6328 3.5625-8.3438 8.0703-8.8672l0.003906-11.98zm-43.266 13.773c-3.9141 0-7.082 3.1719-7.082 7.0742 0 3.9102 3.168 7.0742 7.082 7.0742 3.9141 0 7.0742-3.1641 7.0742-7.0742 0-3.9023-3.1602-7.0742-7.0742-7.0742zm67.363 0c-3.9141 0-7.0742 3.1719-7.0742 7.0742 0 3.9102 3.1602 7.0742 7.0742 7.0742 3.9141 0 7.0859-3.168 7.0859-7.0742 0-3.9023-3.1719-7.0742-7.0859-7.0742z" fill="#333333"></path></g></svg> 