<?xml version="1.0" encoding="UTF-8"?> <svg xmlns="http://www.w3.org/2000/svg" width="129" height="129" viewBox="0 0 129 129" fill="none"><path d="M128.389 62.7804C128.389 62.1406 127.869 61.6108 127.229 61.5808C104.266 60.7111 90.2906 57.782 80.5136 48.0051C70.7167 38.2081 67.7976 24.2225 66.9279 1.20969C66.9079 0.569886 66.3781 0.0500488 65.7283 0.0500488H63.0491C62.4093 0.0500488 61.8795 0.569886 61.8495 1.20969C60.9797 24.2125 58.0607 38.2081 48.2637 48.0051C38.4768 57.792 24.5111 60.7111 1.54831 61.5808C0.908509 61.6008 0.388672 62.1306 0.388672 62.7804V65.4596C0.388672 66.0994 0.908509 66.6292 1.54831 66.6592C24.5111 67.529 38.4868 70.458 48.2637 80.235C58.0407 90.0119 60.9597 103.958 61.8395 126.88C61.8595 127.52 62.3893 128.04 63.0391 128.04H65.7283C66.3681 128.04 66.8979 127.52 66.9279 126.88C67.8076 103.958 70.7267 90.0119 80.5036 80.235C90.2906 70.448 104.256 67.529 127.219 66.6592C127.859 66.6392 128.379 66.1094 128.379 65.4596V62.7804H128.389Z" fill="#202022"></path></svg> 