<?xml version="1.0" encoding="UTF-8"?> <svg xmlns="http://www.w3.org/2000/svg" viewBox="0 0 26.00 26.00" data-guides="{&quot;vertical&quot;:[],&quot;horizontal&quot;:[]}"><defs></defs><path fill="#000000" stroke="none" fill-opacity="1" stroke-width="1" stroke-opacity="1" alignment-baseline="baseline" baseline-shift="baseline" fill-rule="evenodd" id="tSvg78b416ef75" title="Path 5" d="M2.6822 5.3035C3.0854 5.0262 3.5657 4.8749 4.0624 4.8749C10.0207 4.8749 15.9791 4.8749 21.9374 4.8749C22.434 4.8749 22.9144 5.0262 23.3176 5.3035C20.0524 8.046 16.7871 10.7886 13.5219 13.5312C13.2202 13.7851 12.7794 13.7851 12.4778 13.5312C9.2126 10.7886 5.9474 8.046 2.6822 5.3035ZM24.2754 6.6207C24.3404 6.8432 24.375 7.0757 24.375 7.3124C24.375 11.1041 24.375 14.8957 24.375 18.6874C24.375 19.3344 24.118 19.9539 23.661 20.4109C23.2039 20.8679 22.5844 21.1249 21.9375 21.1249C15.9791 21.1249 10.0208 21.1249 4.0625 21.1249C3.4155 21.1249 2.796 20.8679 2.3389 20.4109C1.8819 19.9539 1.625 19.3344 1.625 18.6874C1.625 14.8957 1.625 11.1041 1.625 7.3124C1.625 7.0758 1.6595 6.8432 1.7245 6.6207C4.9603 9.3389 8.1961 12.057 11.4318 14.7751C12.3388 15.5368 13.6611 15.5368 14.568 14.7751C17.8038 12.057 21.0396 9.3389 24.2754 6.6207Z"></path></svg> 