<?xml version="1.0" encoding="UTF-8"?> <svg xmlns="http://www.w3.org/2000/svg" viewBox="0 0 100 100" fill-rule="evenodd"><path d="m97.492 36.66c0-0.48047-0.17969-0.96484-0.54297-1.3359l-2.4883-2.5664-28.609-29.551c-0.015624-0.019531-0.035156-0.03125-0.050781-0.046875l-0.050781-0.054687c-0.007812-0.007813-0.019531-0.015625-0.03125-0.027344-0.074219-0.074219-0.15234-0.14453-0.24219-0.20312-0.007812-0.003906-0.015624-0.007812-0.023437-0.015625-0.30859-0.21094-0.67578-0.33984-1.0742-0.33984-0.019531 0-0.035156 0.003907-0.050781 0.003907l-0.98828-0.023438h-35.891c-6.8633 0-13.102 2.8047-17.621 7.3281-4.5195 4.5195-7.3281 10.758-7.3281 17.621v45.102c0 0.83203 0.042969 1.6523 0.125 2.4648 0.039062 0.38281 0.10938 0.75391 0.16406 1.1328 0.058594 0.39453 0.097657 0.79297 0.17188 1.1836 0.003906 0.03125 0.015624 0.058594 0.023437 0.089844 0.085937 0.43359 0.20703 0.85156 0.31641 1.2773 0.085938 0.32812 0.15625 0.66016 0.25391 0.98438 0.15625 0.51953 0.34375 1.0273 0.53516 1.5312 0.066406 0.17578 0.11719 0.35547 0.18359 0.53125 0.011718 0.035156 0.035156 0.0625 0.046874 0.09375 1.2695 3.1406 3.1484 5.9766 5.5078 8.3359 4.5195 4.5195 10.758 7.3281 17.621 7.3281h45.102c6.8633 0 13.102-2.8086 17.621-7.3281 2.3359-2.3359 4.1992-5.1328 5.4688-8.2344 0.003906-0.003906 0.007813-0.007812 0.007813-0.015625 0.035156-0.089843 0.0625-0.18359 0.097656-0.27344 0.25-0.63281 0.48438-1.2734 0.68359-1.9297 0.070312-0.23438 0.12109-0.47656 0.18359-0.71484 0.14062-0.52734 0.28906-1.0508 0.39453-1.5938 0.003907-0.027343 0.015626-0.058593 0.019532-0.085937 0.074218-0.38672 0.11328-0.78516 0.17188-1.1758 0.054687-0.37891 0.12891-0.75391 0.16797-1.1367 0.089843-0.8125 0.13281-1.6367 0.13281-2.4648v-35.891zm-23.445 27.418v3.3633h-8.0156v8.293h-4.1758l0.003906-20.266h13.191v3.3906h-9.0156v5.2148zm-15.219 1.0625v0.9375c0 1.8828-0.39062 3.5586-1.1641 5.0234-0.77344 1.4688-1.8672 2.6016-3.2773 3.4102-1.4102 0.80859-3.0039 1.2148-4.7734 1.2266h-6.2734l-0.003906-20.27h6.2344c1.7812 0 3.3789 0.39844 4.7852 1.2031 1.4062 0.80078 2.5039 1.9492 3.293 3.4258 0.78516 1.4805 1.1797 3.1641 1.1797 5.043zm-18.363-2.9531c0 1.9844-0.67969 3.5547-2.0391 4.7031-1.3594 1.1445-3.2422 1.7188-5.6445 1.7188h-3.6562v7.125h-4.1758v-20.266h7.9062c1.5195 0 2.8594 0.28125 4.0156 0.83594 1.1523 0.55469 2.043 1.3477 2.6641 2.375 0.62109 1.0273 0.92969 2.1953 0.92969 3.5078zm-27.922-49.648c3.8281-3.8281 9.1055-6.2031 14.91-6.2031h35.008v6.2539c0 6.8633 2.8086 13.102 7.3281 17.621 4.5195 4.5195 10.758 7.3281 17.621 7.3281h6.2539l-0.003906 10.543h-87.32v-20.633c0-5.8047 2.375-11.082 6.2031-14.91zm74.918 74.918c-3.8281 3.8281-9.1055 6.2031-14.91 6.2031h-45.102c-5.8047 0-11.082-2.375-14.91-6.2031-1.2891-1.2891-2.3945-2.7539-3.3203-4.3359h81.559c-0.92188 1.5859-2.0312 3.0469-3.3164 4.3359z" fill-rule="evenodd" fill="#ffaa00"></path><path d="m32.949 58.859h-3.8242v6.3555h3.7305c1.1016 0 1.9414-0.26172 2.5273-0.77734 0.57813-0.51953 0.87109-1.2578 0.87109-2.2227 0-0.99219-0.29688-1.7969-0.87891-2.4102-0.58594-0.61328-1.3945-0.92578-2.4258-0.94531z" fill-rule="evenodd" fill="#ffaa00"></path><path d="m49.566 58.859h-2.0586v13.512h2.0195c1.6289 0 2.8789-0.53125 3.7422-1.5977 0.85938-1.0703 1.3008-2.5938 1.3203-4.5742v-1.0703c0-2.0586-0.42578-3.6211-1.2812-4.6797-0.84766-1.0586-2.0977-1.5898-3.7422-1.5898z" fill-rule="evenodd" fill="#ffaa00"></path></svg> 