<?xml version="1.0" encoding="UTF-8"?> <svg xmlns="http://www.w3.org/2000/svg" viewBox="0 0 27.00 27.00" data-guides="{&quot;vertical&quot;:[],&quot;horizontal&quot;:[]}"><defs></defs><path fill="#000000" stroke="none" fill-opacity="1" stroke-width="1" stroke-opacity="1" fill-rule="evenodd" id="tSvg7c75ad5266" title="Path 1" d="M19.0688 20.2859C19.4273 20.8586 19.5402 21.5368 19.3883 22.1959C19.2364 22.8551 18.8367 23.4152 18.264 23.7738C17.7068 24.1218 17.1496 24.4699 16.5923 24.8179C16.0439 25.1607 15.4195 25.3337 14.7973 25.3337C14.2552 25.3337 13.7152 25.2039 13.2268 24.9403C11.0363 23.7622 7.9292 21.5631 5.5645 17.7799C3.1999 13.9966 2.5872 10.2388 2.4879 7.754C2.4404 6.5611 3.0479 5.4231 4.0731 4.7829C4.6303 4.4348 5.1875 4.0868 5.7447 3.7387C6.9281 2.9994 8.4923 3.3601 9.2326 4.5435C9.6798 5.2589 10.127 5.9743 10.5742 6.6898C11.3135 7.8731 10.9517 9.4384 9.7694 10.1776C9.5494 10.3147 9.3293 10.4518 9.1092 10.5889C8.8529 10.7493 8.701 11.0319 8.7116 11.3251C8.7464 12.2638 8.9731 13.6792 9.858 15.0957C10.7439 16.5121 11.9157 17.3369 12.7438 17.7799C13.0032 17.918 13.3239 17.9043 13.5812 17.744C13.8009 17.6065 14.0207 17.4691 14.2404 17.3316C14.8141 16.9741 15.4934 16.8602 16.1515 17.012C16.8107 17.1639 17.3707 17.5637 17.7282 18.1364C18.1754 18.8518 18.6226 19.5672 19.0688 20.2859ZM12.6203 9.9773C14.9016 10.434 16.3855 12.6604 15.93 14.9418C15.8393 15.3995 16.1346 15.8425 16.5923 15.9343C16.6482 15.9448 16.7041 15.9511 16.759 15.9511C17.1534 15.9511 17.5057 15.6738 17.5848 15.273C18.2229 12.0794 16.1441 8.9628 12.9516 8.3237C12.4918 8.2309 12.0499 8.5283 11.9581 8.985C11.8674 9.4427 12.1627 9.8857 12.6203 9.9773ZM13.6139 5.0139C13.153 4.9211 12.7121 5.2185 12.6203 5.6752C12.5296 6.1329 12.8249 6.5759 13.2816 6.6687C15.2708 7.0674 16.9858 8.2149 18.1111 9.9025C19.2365 11.5901 19.6362 13.615 19.2386 15.6041C19.1479 16.0618 19.4432 16.5048 19.8999 16.5976C19.9558 16.6081 20.0117 16.6145 20.0665 16.6145C20.4609 16.6145 20.8122 16.3371 20.8923 15.9363C21.3796 13.5053 20.8902 11.031 19.5149 8.9679C18.1396 6.9048 16.044 5.5022 13.6139 5.0139ZM22.3235 7.0948C20.4483 4.283 17.5901 2.3676 14.2751 1.7053C13.8174 1.6136 13.3744 1.9099 13.2816 2.3666C13.1898 2.8233 13.4862 3.2673 13.9429 3.3601C16.8159 3.9349 19.2932 5.5939 20.9186 8.0325C22.5438 10.4698 23.1229 13.3944 22.5481 16.2675C22.4574 16.7252 22.7527 17.1682 23.2094 17.261C23.2653 17.2715 23.3212 17.2779 23.376 17.2779C23.7704 17.2779 24.1217 17.0005 24.2018 16.5997C24.8652 13.2849 24.1976 9.911 22.3235 7.0948Z"></path></svg> 