<?xml version="1.0" encoding="UTF-8"?> <svg xmlns="http://www.w3.org/2000/svg" viewBox="0 0 32.00 32.00" data-guides="{&quot;vertical&quot;:[],&quot;horizontal&quot;:[]}"><defs></defs><path fill="#000000" stroke="none" fill-opacity="1" stroke-width="1" stroke-opacity="1" alignment-baseline="baseline" baseline-shift="baseline" fill-rule="evenodd" id="tSvg179a8a1089e" title="Path 4" d="M5.4499 14.4998C5.0616 14.3832 4.6733 14.2665 4.2849 14.1498C3.8112 14.0073 3.4874 13.5723 3.4874 13.0773C3.4874 12.5823 3.8112 12.146 4.2849 12.0048C8.0825 10.8656 11.88 9.7264 15.6776 8.5872C15.8876 8.5247 16.1113 8.5247 16.3213 8.5872C20.1189 9.7264 23.9164 10.8656 27.714 12.0048C28.1877 12.1473 28.5115 12.5823 28.5115 13.0773C28.5115 13.5723 28.1877 14.0073 27.714 14.1498C26.6223 14.4773 25.5307 14.8048 24.4391 15.1323C24.4391 16.8453 24.4391 18.5582 24.4391 20.2712C24.4391 21.1337 23.7416 21.8724 22.5466 22.3949C20.9591 23.09 18.4803 23.4512 16.0016 23.4587C13.5204 23.4649 11.0416 23.1174 9.4541 22.4212C8.2603 21.8974 7.5616 21.1537 7.5616 20.2712C7.5616 18.5582 7.5616 16.8452 7.5616 15.1323C7.0928 14.9915 6.6241 14.8506 6.1553 14.7098C6.1553 16.3927 6.1553 18.0756 6.1553 19.7584C6.2449 19.7584 6.3345 19.7584 6.4241 19.7584C6.5391 19.7584 6.6491 19.8047 6.7316 19.8859C6.8128 19.9672 6.8591 20.0772 6.8591 20.1922C6.8591 21.0751 6.8591 21.958 6.8591 22.8409C6.8591 22.9559 6.8128 23.0659 6.7316 23.1472C6.6503 23.2284 6.5403 23.2747 6.4241 23.2747C6.0099 23.2747 5.5957 23.2747 5.1816 23.2747C5.0666 23.2747 4.9566 23.2284 4.8741 23.1472C4.7928 23.0659 4.7466 22.9559 4.7466 22.8409C4.7466 21.958 4.7466 21.0751 4.7466 20.1922C4.7466 20.0772 4.7928 19.9672 4.8741 19.8859C4.9553 19.8047 5.0653 19.7584 5.1816 19.7584C5.2712 19.7584 5.3607 19.7584 5.4503 19.7584C5.4502 18.0056 5.4501 16.2527 5.4499 14.4998ZM21.6262 17.0198C21.6262 18.1674 21.6262 19.3149 21.6262 20.4624C21.6262 20.6562 21.7837 20.8137 21.9775 20.8137C22.1713 20.8137 22.3288 20.6562 22.3288 20.4624C22.3288 19.3149 22.3288 18.1674 22.3288 17.0198C22.3288 16.8261 22.1713 16.6686 21.9775 16.6686C21.7838 16.6686 21.6262 16.8261 21.6262 17.0198ZM15.9075 10.6035C17.7829 11.1152 19.6583 11.6269 21.5338 12.1385C21.7213 12.1898 21.915 12.0785 21.965 11.8923C22.0163 11.7048 21.905 11.5123 21.7188 11.461C19.8434 10.9498 17.9679 10.4385 16.0925 9.9273C15.905 9.876 15.7113 9.9873 15.6613 10.1735C15.61 10.361 15.7213 10.5548 15.9075 10.6035ZM23.2925 12.6173C24.1129 12.841 24.9333 13.0648 25.7537 13.2885C25.9412 13.3398 26.135 13.2285 26.185 13.0423C26.2362 12.8548 26.125 12.661 25.9387 12.611C25.1183 12.3873 24.2979 12.1635 23.4775 11.9398C23.29 11.8885 23.0962 11.9998 23.0462 12.186C22.995 12.3735 23.1062 12.566 23.2925 12.6173Z"></path></svg> 