<?xml version="1.0" encoding="UTF-8"?> <svg xmlns="http://www.w3.org/2000/svg" xmlns:xlink="http://www.w3.org/1999/xlink" width="500" zoomAndPan="magnify" viewBox="0 0 375 374.999991" height="500" preserveAspectRatio="xMidYMid meet" version="1.0"><defs><g></g><clipPath id="7a4cceebdd"><path d="M 58.59375 192.980469 L 317.308594 192.980469 L 317.308594 302.957031 L 58.59375 302.957031 Z M 58.59375 192.980469 " clip-rule="nonzero"></path></clipPath><clipPath id="0106ae9ea9"><path d="M 0.59375 0.980469 L 259.308594 0.980469 L 259.308594 110.957031 L 0.59375 110.957031 Z M 0.59375 0.980469 " clip-rule="nonzero"></path></clipPath><clipPath id="cf8a572562"><rect x="0" width="260" y="0" height="111"></rect></clipPath><clipPath id="b7f8b8375e"><rect x="0" width="194" y="0" height="137"></rect></clipPath></defs><path fill="#545454" d="M 365.59375 137.476562 C 365.59375 135.671875 364.921875 133.855469 363.558594 132.464844 L 354.226562 122.839844 L 246.945312 12.023438 C 246.886719 11.953125 246.8125 11.90625 246.753906 11.847656 L 246.5625 11.644531 C 246.535156 11.613281 246.488281 11.585938 246.445312 11.542969 C 246.167969 11.261719 245.875 11 245.539062 10.78125 C 245.507812 10.765625 245.480469 10.75 245.449219 10.722656 C 244.292969 9.929688 242.914062 9.445312 241.421875 9.445312 C 241.347656 9.445312 241.289062 9.460938 241.230469 9.460938 L 237.523438 9.375 L 102.933594 9.375 C 77.195312 9.375 53.800781 19.890625 36.855469 36.855469 C 19.90625 53.800781 9.375 77.195312 9.375 102.933594 L 9.375 272.066406 C 9.375 275.183594 9.535156 278.261719 9.84375 281.308594 C 9.988281 282.742188 10.253906 284.136719 10.457031 285.554688 C 10.679688 287.035156 10.824219 288.53125 11.101562 289.996094 C 11.117188 290.113281 11.160156 290.214844 11.191406 290.332031 C 11.511719 291.957031 11.96875 293.523438 12.378906 295.121094 C 12.699219 296.351562 12.964844 297.597656 13.328125 298.8125 C 13.914062 300.761719 14.617188 302.664062 15.335938 304.554688 C 15.585938 305.214844 15.777344 305.886719 16.023438 306.546875 C 16.070312 306.679688 16.15625 306.78125 16.199219 306.898438 C 20.960938 318.675781 28.007812 329.3125 36.855469 338.160156 C 53.804688 355.105469 77.199219 365.640625 102.933594 365.640625 L 272.066406 365.640625 C 297.804688 365.640625 321.199219 355.105469 338.144531 338.160156 C 346.90625 329.398438 353.890625 318.910156 358.652344 307.28125 C 358.667969 307.265625 358.683594 307.25 358.683594 307.222656 C 358.8125 306.882812 358.917969 306.53125 359.046875 306.195312 C 359.984375 303.824219 360.863281 301.421875 361.613281 298.960938 C 361.875 298.082031 362.066406 297.171875 362.300781 296.277344 C 362.828125 294.300781 363.382812 292.339844 363.78125 290.300781 C 363.792969 290.199219 363.839844 290.082031 363.851562 289.980469 C 364.132812 288.527344 364.277344 287.035156 364.496094 285.570312 C 364.703125 284.148438 364.980469 282.742188 365.128906 281.308594 C 365.464844 278.261719 365.625 275.167969 365.625 272.066406 L 365.625 137.472656 Z M 277.675781 240.292969 L 277.675781 252.90625 L 247.617188 252.90625 L 247.617188 284.003906 L 231.957031 284.003906 L 231.972656 208.007812 L 281.4375 208.007812 L 281.4375 220.722656 L 247.628906 220.722656 L 247.628906 240.277344 Z M 220.605469 244.277344 L 220.605469 247.792969 C 220.605469 254.851562 219.140625 261.136719 216.238281 266.628906 C 213.339844 272.136719 209.238281 276.386719 203.949219 279.417969 C 198.660156 282.449219 192.683594 283.972656 186.050781 284.019531 L 162.523438 284.019531 L 162.507812 208.003906 L 185.886719 208.003906 C 192.566406 208.003906 198.558594 209.5 203.832031 212.515625 C 209.105469 215.519531 213.222656 219.828125 216.183594 225.363281 C 219.125 230.914062 220.605469 237.230469 220.605469 244.273438 Z M 151.742188 233.203125 C 151.742188 240.644531 149.195312 246.53125 144.097656 250.839844 C 139 255.132812 131.9375 257.285156 122.929688 257.285156 L 109.21875 257.285156 L 109.21875 284.003906 L 93.558594 284.003906 L 93.558594 208.007812 L 123.207031 208.007812 C 128.90625 208.007812 133.929688 209.0625 138.265625 211.140625 C 142.589844 213.222656 145.929688 216.195312 148.257812 220.046875 C 150.585938 223.898438 151.742188 228.28125 151.742188 233.203125 Z M 47.035156 47.023438 C 61.390625 32.667969 81.183594 23.761719 102.949219 23.761719 L 234.230469 23.761719 L 234.230469 47.214844 C 234.230469 72.949219 244.761719 96.347656 261.710938 113.292969 C 278.65625 130.238281 302.050781 140.773438 327.789062 140.773438 L 351.238281 140.773438 L 351.226562 180.308594 L 23.773438 180.308594 L 23.773438 102.933594 C 23.773438 81.167969 32.679688 61.378906 47.035156 47.023438 Z M 327.980469 327.964844 C 313.625 342.320312 293.832031 351.226562 272.066406 351.226562 L 102.933594 351.226562 C 81.167969 351.226562 61.375 342.320312 47.019531 327.964844 C 42.1875 323.132812 38.042969 317.636719 34.570312 311.707031 L 340.417969 311.707031 C 336.960938 317.652344 332.800781 323.132812 327.980469 327.964844 Z M 327.980469 327.964844 " fill-opacity="1" fill-rule="evenodd"></path><path fill="#545454" d="M 123.558594 220.722656 L 109.21875 220.722656 L 109.21875 244.554688 L 123.207031 244.554688 C 127.339844 244.554688 130.488281 243.574219 132.683594 241.640625 C 134.851562 239.691406 135.953125 236.921875 135.953125 233.304688 C 135.953125 229.582031 134.839844 226.566406 132.65625 224.265625 C 130.457031 221.964844 127.425781 220.792969 123.558594 220.722656 Z M 123.558594 220.722656 " fill-opacity="1" fill-rule="evenodd"></path><path fill="#545454" d="M 185.871094 220.722656 L 178.152344 220.722656 L 178.152344 271.390625 L 185.726562 271.390625 C 191.835938 271.390625 196.523438 269.398438 199.757812 265.398438 C 202.980469 261.386719 204.636719 255.671875 204.710938 248.246094 L 204.710938 244.234375 C 204.710938 236.511719 203.113281 230.652344 199.90625 226.683594 C 196.726562 222.714844 192.039062 220.722656 185.871094 220.722656 Z M 185.871094 220.722656 " fill-opacity="1" fill-rule="evenodd"></path><g clip-path="url(#7a4cceebdd)"><g transform="matrix(1, 0, 0, 1, 58, 192)"><g clip-path="url(#cf8a572562)"><g clip-path="url(#0106ae9ea9)"><path fill="#545454" d="M 0.59375 0.980469 L 259.210938 0.980469 L 259.210938 110.957031 L 0.59375 110.957031 Z M 0.59375 0.980469 " fill-opacity="1" fill-rule="nonzero"></path></g></g></g></g><g transform="matrix(1, 0, 0, 1, 92, 180)"><g clip-path="url(#b7f8b8375e)"><g fill="#ffbd59" fill-opacity="1"><g transform="translate(0.364915, 106.875289)"><g><path d="M 50.328125 -21.71875 C 50.328125 -24.945312 49.1875 -27.421875 46.90625 -29.140625 C 44.632812 -30.867188 40.539062 -32.691406 34.625 -34.609375 C 28.71875 -36.523438 24.039062 -38.410156 20.59375 -40.265625 C 11.1875 -45.347656 6.484375 -52.191406 6.484375 -60.796875 C 6.484375 -65.265625 7.742188 -69.253906 10.265625 -72.765625 C 12.785156 -76.273438 16.40625 -79.015625 21.125 -80.984375 C 25.84375 -82.953125 31.140625 -83.9375 37.015625 -83.9375 C 42.929688 -83.9375 48.203125 -82.863281 52.828125 -80.71875 C 57.453125 -78.582031 61.046875 -75.5625 63.609375 -71.65625 C 66.171875 -67.75 67.453125 -63.3125 67.453125 -58.34375 L 50.390625 -58.34375 C 50.390625 -62.132812 49.191406 -65.082031 46.796875 -67.1875 C 44.410156 -69.289062 41.054688 -70.34375 36.734375 -70.34375 C 32.566406 -70.34375 29.328125 -69.460938 27.015625 -67.703125 C 24.703125 -65.941406 23.546875 -63.617188 23.546875 -60.734375 C 23.546875 -58.046875 24.898438 -55.789062 27.609375 -53.96875 C 30.316406 -52.144531 34.304688 -50.4375 39.578125 -48.84375 C 49.285156 -45.925781 56.359375 -42.304688 60.796875 -37.984375 C 65.234375 -33.660156 67.453125 -28.28125 67.453125 -21.84375 C 67.453125 -14.675781 64.738281 -9.050781 59.3125 -4.96875 C 53.894531 -0.894531 46.597656 1.140625 37.421875 1.140625 C 31.046875 1.140625 25.242188 -0.0234375 20.015625 -2.359375 C 14.785156 -4.691406 10.796875 -7.882812 8.046875 -11.9375 C 5.296875 -16 3.921875 -20.703125 3.921875 -26.046875 L 21.046875 -26.046875 C 21.046875 -16.910156 26.503906 -12.34375 37.421875 -12.34375 C 41.472656 -12.34375 44.632812 -13.164062 46.90625 -14.8125 C 49.1875 -16.457031 50.328125 -18.757812 50.328125 -21.71875 Z M 50.328125 -21.71875 "></path></g></g></g><g fill="#ffbd59" fill-opacity="1"><g transform="translate(74.643275, 106.875289)"><g><path d="M 25.53125 0 L 8.46875 0 L 8.46875 -82.796875 L 25.53125 -82.796875 Z M 25.53125 0 "></path></g></g></g><g fill="#ffbd59" fill-opacity="1"><g transform="translate(111.273707, 106.875289)"><g><path d="M 72.90625 -10.46875 C 69.832031 -6.789062 65.488281 -3.9375 59.875 -1.90625 C 54.269531 0.125 48.054688 1.140625 41.234375 1.140625 C 34.066406 1.140625 27.78125 -0.421875 22.375 -3.546875 C 16.976562 -6.679688 12.804688 -11.222656 9.859375 -17.171875 C 6.921875 -23.128906 5.414062 -30.125 5.34375 -38.15625 L 5.34375 -43.796875 C 5.34375 -52.054688 6.734375 -59.207031 9.515625 -65.25 C 12.304688 -71.300781 16.328125 -75.925781 21.578125 -79.125 C 26.828125 -82.332031 32.976562 -83.9375 40.03125 -83.9375 C 49.851562 -83.9375 57.53125 -81.59375 63.0625 -76.90625 C 68.601562 -72.226562 71.882812 -65.414062 72.90625 -56.46875 L 56.296875 -56.46875 C 55.535156 -61.207031 53.859375 -64.675781 51.265625 -66.875 C 48.671875 -69.070312 45.097656 -70.171875 40.546875 -70.171875 C 34.742188 -70.171875 30.328125 -67.988281 27.296875 -63.625 C 24.265625 -59.269531 22.726562 -52.789062 22.6875 -44.1875 L 22.6875 -38.90625 C 22.6875 -30.21875 24.335938 -23.65625 27.640625 -19.21875 C 30.941406 -14.78125 35.773438 -12.5625 42.140625 -12.5625 C 48.546875 -12.5625 53.113281 -13.925781 55.84375 -16.65625 L 55.84375 -30.9375 L 40.328125 -30.9375 L 40.328125 -43.5 L 72.90625 -43.5 Z M 72.90625 -10.46875 "></path></g></g></g></g></g></svg> 