<?xml version="1.0" encoding="UTF-8"?> <svg xmlns="http://www.w3.org/2000/svg" viewBox="0 0 40.00 40.00" data-guides="{&quot;vertical&quot;:[],&quot;horizontal&quot;:[]}"><path fill="#333333" stroke="none" fill-opacity="1" stroke-width="1" stroke-opacity="1" alignment-baseline="baseline" baseline-shift="baseline" fill-rule="evenodd" id="tSvg12ff3c769f" title="Path 1" d="M37.4376 5.9248C35.3125 14.6832 33.1875 23.4416 31.0624 32.2C30.7624 33.4375 29.3749 34.075 28.2374 33.4875C25.5499 32.1001 22.8625 30.7126 20.175 29.3251C18.9042 31.4043 17.6333 33.4835 16.3625 35.5627C15.325 37.2627 12.7 36.5252 12.7 34.5377C12.7 32.2211 12.7 29.9044 12.7 27.5877C12.7 27.0502 12.925 26.5377 13.3125 26.1627C18.55 21.1627 23.7875 16.1627 29.0249 11.1627C29.0124 10.9752 28.8124 10.8127 28.6124 10.9502C22.3624 15.3002 16.1124 19.6502 9.8624 24.0002C7.7624 22.9169 5.6624 21.8336 3.5624 20.7502C2.0874 19.9877 2.15 17.8502 3.6749 17.1877C14.0291 12.6752 24.3832 8.1627 34.7373 3.6501C36.2249 3.0001 37.8249 4.3377 37.4376 5.9248Z"></path><defs></defs></svg> 