<?xml version="1.0" encoding="utf-8"?> <svg xmlns="http://www.w3.org/2000/svg" xmlns:xlink="http://www.w3.org/1999/xlink" version="1.1" id="Слой_1" x="0px" y="0px" viewBox="0 0 30 30" style="enable-background:new 0 0 30 30;" xml:space="preserve"> <style type="text/css"> .st0{fill:#FF8B31;} </style> <path id="tSvg898542cc87" class="st0" d="M11.2,0.1c-0.2,0.1-0.2,0.3-0.3,0.8c-0.2,1.3-0.2,3,0,4.4c0.1,0.6,0.6,3,0.8,3.5 c0,0.1-0.4-0.3-0.9-0.9C9.6,6.6,8.6,5.8,7.3,5C6.7,4.6,5.6,4,5.1,3.9C4.8,3.7,4.7,3.7,4.5,3.8C4.3,3.9,4.2,4.1,4.2,4.3 c0,0.2,0.3,1.2,0.6,1.7C5,6.4,5.6,7.3,6.2,8.1c1,1.2,2.2,2.4,3.3,3.3c0.3,0.2,0.5,0.4,0.5,0.4c0,0-0.1,0-0.3-0.1 c-0.9-0.3-4-1.3-4.4-1.4c-1.1-0.2-2.5-0.3-4-0.1c-0.8,0.1-1,0.2-1.1,0.4c-0.1,0.3,0,0.5,0.5,1c1.3,1.1,3,2,4.7,2.5 c0.3,0.1,1.1,0.3,1.7,0.5c0.4,0.1,0.8,0.2,1.2,0.3c-0.3,0.1-0.6,0.1-0.8,0.2c-0.5,0.1-1,0.2-1.1,0.2c-1.1,0.1-2.8,0.7-4,1.3 c-1.1,0.6-2.4,1.5-2.5,1.9c-0.1,0.3,0.1,0.6,0.3,0.7c1,0.3,2.8,0.4,4.2,0.3c1.2-0.1,1.8-0.3,4.3-1.1c0.2-0.1,0.3-0.1,0.5-0.2 c-0.1,0.1-0.1,0.1-0.2,0.2c-0.1,0.1-0.5,0.4-0.9,0.8c-1.8,1.4-3.2,3.1-4,4.7c-0.4,0.9-0.6,1.5-0.5,1.7C3.8,26,4.1,26,5.1,25.7 c2.1-0.8,3.7-2,5.8-4.3c0.4-0.5,0.7-0.8,0.8-0.8c0,0-0.1,0.4-0.3,0.9c-0.2,0.5-0.4,1.1-0.5,1.3c-0.1,0.2-0.2,0.6-0.3,0.9 c-0.4,1.3-0.6,3.1-0.5,4.3c0.1,1.5,0.3,1.8,0.7,1.8c0.2,0,0.3,0,0.5-0.3c0.7-0.7,1.3-1.7,1.8-2.8c0.6-1.3,0.9-2.3,1.3-4.4 c0.1-0.5,0.2-0.9,0.2-0.9c0,0,0.1,0.5,0.2,1c0.2,1.5,0.3,1.8,0.5,2.5c0.4,1.3,0.9,2.5,1.6,3.6c0.4,0.6,0.9,1.2,1.1,1.3 c0.2,0.1,0.4,0.1,0.6-0.1c0.2-0.2,0.3-0.9,0.4-2.3c0.1-1.3,0-2.8-0.2-3.6c-0.1-0.5-0.6-2.3-0.8-3c-0.1-0.2-0.1-0.4-0.1-0.4 c0,0,0.3,0.3,0.6,0.8c1.4,1.7,2.6,3,3.4,3.6c0.8,0.5,1.8,1,2.9,1.3c0.4,0.1,0.6,0,0.8-0.2c0.1-0.2,0.1-0.4-0.1-1 c-0.7-2-2-3.8-4.2-5.8c-0.5-0.5-1-0.9-1-0.9c0,0,0.4,0.1,1,0.3c2.4,0.9,3.8,1.2,5.6,1.2c1.5,0,2.5-0.1,2.7-0.4 c0.2-0.2,0.2-0.5-0.1-0.8c-0.6-0.6-1.7-1.4-2.9-2c-1.2-0.6-2.2-0.9-3.8-1.3c-0.4-0.1-0.9-0.2-1.3-0.3c0.2,0,0.4-0.1,0.6-0.1 c1.1-0.2,2.4-0.5,3.1-0.8c1.5-0.5,3.4-1.6,4.3-2.4c0.2-0.2,0.2-0.4,0.1-0.7c-0.1-0.2-0.2-0.2-0.9-0.4c-2.1-0.4-4.3-0.2-7,0.6 c-0.5,0.1-0.9,0.2-0.9,0.2c0,0,0.1-0.2,0.3-0.3c0.7-0.6,2-1.9,2.5-2.5c0.9-1.1,1.7-2.4,2.1-3.5c0.3-0.6,0.3-0.9,0-1.1 c-0.4-0.3-2.1,0.4-3.6,1.4c-1,0.7-1.8,1.3-2.9,2.5c-0.5,0.5-1,1-1,1c0,0,0.2-0.6,0.4-1.2c0.7-2,0.9-3.3,0.8-5.2 c-0.1-1.9-0.2-2.3-0.7-2.3c-0.3,0-0.4,0.1-0.9,0.6c-1.3,1.6-2.1,3.3-2.8,6.1c-0.2,0.7-0.3,1.1-0.3,1c0-0.1-0.1-0.5-0.2-1 c-0.3-1.7-0.8-3.2-1.5-4.4c-0.4-0.7-1.1-1.8-1.5-2.2C11.7,0,11.4-0.1,11.2,0.1z"></path> </svg> 