<?xml version="1.0" encoding="UTF-8"?> <svg xmlns="http://www.w3.org/2000/svg" viewBox="0 0 26.00 26.86" data-guides="{&quot;vertical&quot;:[],&quot;horizontal&quot;:[]}"><defs></defs><path fill="#333333" stroke="none" fill-opacity="1" stroke-width="1" stroke-opacity="1" id="tSvg184f0991a78" title="Path 1" d="M9.6841 0.7432C9.5328 0.8238 9.4759 0.9617 9.3859 1.4564C9.1821 2.5742 9.1726 4.0482 9.3574 5.285C9.4333 5.7891 9.9021 7.8722 10.0538 8.3477C10.068 8.4 9.7363 8.0527 9.3147 7.5772C8.2727 6.3978 7.4437 5.6701 6.3495 4.9758C5.8187 4.6429 4.8477 4.1529 4.4025 4.0057C4.104 3.901 4.0472 3.8963 3.9144 3.9534C3.7488 4.02 3.6256 4.2148 3.6256 4.4003C3.6256 4.5526 3.9239 5.4037 4.1277 5.8319C4.3031 6.2123 4.8383 6.997 5.3499 7.6391C6.2073 8.7042 7.2635 9.7554 8.2348 10.5067C8.4857 10.7017 8.6847 10.8729 8.68 10.8825C8.6705 10.892 8.5663 10.8635 8.4526 10.8254C7.7135 10.5637 4.9994 9.7269 4.644 9.6555C3.7062 9.4604 2.4461 9.4367 1.1956 9.5936C0.5182 9.6746 0.3476 9.7412 0.267 9.9407C0.1438 10.2309 0.2244 10.3784 0.7027 10.7826C1.7972 11.7053 3.3033 12.5183 4.7861 12.9846C5.0468 13.0655 5.7287 13.246 6.3021 13.384C6.6494 13.4665 6.9969 13.5489 7.3441 13.6314C7.0992 13.6822 6.8547 13.7329 6.6099 13.7833C6.2073 13.8643 5.7571 13.9499 5.6152 13.9642C4.7009 14.0784 3.2039 14.5681 2.1855 15.096C1.2004 15.6004 0.1296 16.4086 0.0253 16.7226C-0.0552 16.9605 0.0774 17.2219 0.3144 17.3028C1.1719 17.5835 2.7113 17.6784 3.957 17.5312C5.0326 17.4074 5.511 17.279 7.6993 16.5513C7.8335 16.507 7.9678 16.4625 8.1022 16.4181C8.0389 16.472 7.9757 16.526 7.9126 16.5799C7.8083 16.6703 7.4484 16.9652 7.1072 17.2362C5.5441 18.4726 4.3125 19.9233 3.6209 21.3358C3.2323 22.1348 3.0857 22.6056 3.1517 22.8099C3.2702 23.1762 3.5688 23.2 4.3647 22.9051C6.1694 22.2392 7.6142 21.1741 9.4048 19.1813C9.7552 18.7914 10.049 18.4726 10.0586 18.4822C10.0632 18.4869 9.9353 18.8533 9.7789 19.2955C9.6177 19.7377 9.438 20.2607 9.3811 20.4559C9.3243 20.651 9.2199 21.0027 9.1489 21.2406C8.8175 22.3581 8.6468 23.9134 8.7369 24.9977C8.8459 26.2675 8.9549 26.5434 9.3717 26.5434C9.547 26.5434 9.5896 26.5196 9.8216 26.2722C10.4136 25.6444 10.9631 24.8121 11.4228 23.8563C11.958 22.734 12.2279 21.8493 12.5834 20.0422C12.6687 19.5902 12.7539 19.2384 12.7729 19.2574C12.7871 19.2765 12.858 19.6663 12.929 20.1231C13.1233 21.3929 13.1802 21.6829 13.3603 22.3106C13.6965 23.4757 14.1606 24.5126 14.7577 25.4113C15.1034 25.9347 15.5581 26.4816 15.7239 26.5767C15.8851 26.6716 16.1123 26.6481 16.2497 26.5292C16.425 26.3769 16.5436 25.7396 16.6099 24.565C16.6763 23.4471 16.6146 22.1488 16.463 21.4072C16.373 20.9741 15.9609 19.4477 15.7571 18.7914C15.705 18.625 15.6671 18.4774 15.6765 18.4726C15.6861 18.4632 15.9372 18.7629 16.2308 19.1338C17.4244 20.6367 18.4952 21.7732 19.2011 22.2773C19.8643 22.7531 20.7926 23.162 21.7306 23.3808C22.0621 23.4567 22.2896 23.4094 22.4033 23.2381C22.517 23.0668 22.4981 22.8955 22.3132 22.3581C21.6975 20.5843 20.5843 19.0385 18.6798 17.3075C18.2156 16.8892 17.8368 16.5418 17.8368 16.5323C17.8368 16.5276 18.2156 16.656 18.6798 16.8273C20.7262 17.5692 21.9531 17.8354 23.5069 17.8734C24.838 17.9115 25.6813 17.7878 25.8849 17.5217C26.0459 17.3171 26.0175 17.1125 25.7853 16.8558C25.2974 16.3277 24.3076 15.6527 23.27 15.1531C22.2327 14.649 21.3515 14.3591 19.9587 14.0641C19.5688 13.9816 19.179 13.8992 18.7888 13.8167C18.9736 13.7802 19.1584 13.7437 19.343 13.7076C20.2858 13.5219 21.3894 13.2413 22.0526 13.0131C23.3932 12.5516 25.0087 11.6434 25.7758 10.9205C25.9559 10.7493 25.9843 10.559 25.8659 10.3309C25.7853 10.1691 25.6577 10.1167 25.1082 10.0216C23.2558 9.6935 21.3372 9.8599 19.0305 10.5447C18.6279 10.6636 18.2914 10.7493 18.282 10.7397C18.2677 10.7302 18.4052 10.5923 18.5805 10.4403C19.2011 9.9026 20.3142 8.7756 20.731 8.2667C21.4984 7.325 22.1663 6.2217 22.5452 5.2564C22.7632 4.695 22.7632 4.4765 22.5311 4.3004C22.2232 4.0625 20.7499 4.6429 19.4425 5.5178C18.5663 6.1028 17.9126 6.6639 16.9461 7.6628C16.4914 8.1383 16.1123 8.5142 16.1028 8.5047C16.0933 8.4952 16.245 8.0099 16.4393 7.4249C17.0314 5.6653 17.2067 4.5812 17.1593 2.8927C17.1119 1.2425 17.003 0.8618 16.5815 0.8618C16.335 0.8618 16.226 0.9428 15.8424 1.4234C14.7151 2.826 14.0282 4.2956 13.3793 6.6782C13.2087 7.325 13.1139 7.5962 13.0901 7.5344C13.0712 7.4868 12.9906 7.1064 12.9053 6.6877C12.626 5.247 12.1713 3.8915 11.6263 2.8593C11.3139 2.2744 10.6601 1.2901 10.3662 0.9665C10.1106 0.6861 9.9021 0.6147 9.6841 0.7432Z"></path></svg> 