<?xml version="1.0" encoding="UTF-8"?> <svg xmlns="http://www.w3.org/2000/svg" viewBox="0 0 100 100" fill-rule="evenodd"><path d="m18.023 80.523c-1.4336 3.1016-2.332 6.5664-2.6992 10.398h3.0508c0.36719-4.168 1.3164-7.918 2.8516-11.25 2.9688-6.4336 8.0156-11.418 15.148-14.949-8.8984 3.3359-15.016 8.6016-18.352 15.801zm18.551-47.898c-0.10156 0-0.18359 0.015625-0.25 0.050781-0.46875 1.332-0.69922 2.7656-0.69922 4.3008v3.4492c0 0.53125-0.18359 1-0.55078 1.3984-0.36719 0.36719-0.81641 0.56641-1.3516 0.60156-0.60156 0.03125-1.0859 0.26562-1.4492 0.69922-0.43359 0.39844-0.64844 0.88281-0.64844 1.4492v2.8516c0 0.56641 0.21875 1.082 0.64844 1.5508 0.39844 0.39844 0.88281 0.60156 1.4492 0.60156 0.53125 0 1 0.18359 1.3984 0.55078 0.36719 0.33203 0.58203 0.76562 0.64844 1.3008 0.33594 3.0312 1.6484 5.7148 3.9492 8.0508 0.26562 0.26562 0.51562 0.5 0.75 0.69922 0.03125 0.03125 0.082031 0.082031 0.14844 0.14844 0.39844 0.33203 0.80078 0.64844 1.1992 0.94922l-0.050781-0.050782c0.39844 0.30078 0.85156 0.56641 1.3516 0.80078 0.33203-0.13281 0.68359-0.25 1.0508-0.35156-0.26562-0.23438-0.53125-0.48438-0.80078-0.75-2.668-2.6992-4.1836-5.8008-4.5508-9.3008-1.1328 0-2.1172-0.41797-2.9492-1.25-0.80078-0.80078-1.1992-1.7812-1.1992-2.9492v-2.8516c0-1.168 0.39844-2.1484 1.1992-2.9492 0.76562-0.73438 1.6992-1.1328 2.8008-1.1992v-3.4492c0-1.7656 0.26953-3.3984 0.80078-4.8984-0.69922 0.10156-1.3984 0.23438-2.1016 0.39844h-0.10156c-0.23047 0.03125-0.43359 0.066407-0.60156 0.10156-0.023437-0.003906-0.054687 0.015625-0.089843 0.046875zm-0.84766-2.4492c0.066407 0 0.14844-0.015625 0.25-0.050781h0.10156c0.26562-0.10156 0.55078-0.16797 0.85156-0.19922h0.19922v-2.9492c-1.2344-0.39844-2.4336-0.86719-3.6016-1.3984 0.035156 0.066406 0.085937 0.13281 0.14844 0.19922 0.23438 0.36719 0.35156 0.76562 0.35156 1.1992v2.8516c0.53516-0.10156 1.0195-0.03125 1.4492 0.19922 0.066407 0.03125 0.14844 0.082031 0.25 0.14844zm14.5 56.848c1.5312-1.4688 2.8828-2.9844 4.0508-4.5508v0.050782c1.7695-2.5 3.1172-5.1328 4.0508-7.8984-5.5 2.9336-11 2.9492-16.5 0.050781 0.93359 2.7656 2.3164 5.3672 4.1484 7.8008 1.1641 1.5664 2.582 3.082 4.25 4.5469zm29.047-52.797c0-0.46875-0.14844-0.85156-0.44922-1.1484-0.33594-0.33203-0.73438-0.5-1.1992-0.5-0.10156 0-0.21875 0.015625-0.35156 0.050781h-0.10156c-0.30078 0.066406-0.55078 0.21875-0.75 0.44922-0.33203 0.30078-0.5 0.68359-0.5 1.1484 0 0.5 0.16797 0.91797 0.5 1.25 0.30078 0.30078 0.69922 0.44922 1.1992 0.44922 0.46875 0 0.86719-0.14844 1.1992-0.44922 0.30469-0.33594 0.45313-0.75 0.45313-1.25zm4.0508-17.102c0.36719 0.23438 0.64844 0.56641 0.85156 1 0.16797 0.39844 0.19922 0.81641 0.10156 1.25-0.10156 0.43359-0.31641 0.81641-0.64844 1.1484-1.668 1.332-3.4336 2.5664-5.3008 3.6992v5.8516c0.83203 0.13281 1.6016 0.53125 2.3008 1.1992 0.80078 0.83203 1.1992 1.8164 1.1992 2.9492 0 1.168-0.39844 2.168-1.1992 3-0.86719 0.83203-1.8672 1.25-3 1.25-1.168 0-2.1484-0.41797-2.9492-1.25-0.86719-0.83203-1.3008-1.832-1.3008-3 0-1.1328 0.43359-2.1172 1.3008-2.9492 0.33594-0.36719 0.69922-0.64844 1.1016-0.85156v-4.8516c-1.7305 0.89844-3.5508 1.6992-5.4492 2.3984v4.4492c0 0.43359-0.11719 0.81641-0.35156 1.1484-0.23438 0.33203-0.55078 0.58203-0.94922 0.75-0.26562 0.066406-0.51562 0.10156-0.75 0.10156 0.10156 0.83203 0.14844 1.6836 0.14844 2.5508v1.8008c0.86719 0.26562 1.6172 0.75 2.25 1.4492 1.1992 1.168 1.8008 2.6172 1.8008 4.3516v2.8516c0 1.7344-0.60156 3.2148-1.8008 4.4492v-0.050782c-0.73047 0.76563-1.6016 1.2812-2.6016 1.5508-0.53125 2.6992-1.6836 5.168-3.4492 7.3984 10.301 3.7344 17.332 9.75 21.102 18.051 1.6328 3.6016 2.6484 7.6328 3.0508 12.102h4c0.56641 0 1.0508 0.19922 1.4492 0.60156 0.36719 0.36719 0.55078 0.83203 0.55078 1.3984 0 0.60156-0.18359 1.1016-0.55078 1.5-0.39844 0.36719-0.88281 0.55078-1.4492 0.55078h-5.5-0.35156-73.801-0.10156l-5.8008 0.003906c-0.56641 0-1.0312-0.18359-1.3984-0.55078-0.39844-0.39844-0.60156-0.89844-0.60156-1.5 0-0.56641 0.19922-1.0352 0.60156-1.3984 0.36719-0.39844 0.83594-0.60156 1.3984-0.60156h4.0508c0.36719-4.4688 1.3867-8.5 3.0508-12.102 3.7344-8.3008 10.766-14.316 21.102-18.051-1.8008-2.2344-2.9492-4.6992-3.4492-7.3984-1-0.26562-1.8672-0.76562-2.6016-1.5-1.2344-1.2344-1.8516-2.7148-1.8516-4.4492v-2.8516c0-1.7344 0.61719-3.1836 1.8516-4.3516 0.60156-0.69922 1.332-1.1836 2.1992-1.4492v-1.8008c0-0.86719 0.066406-1.7188 0.19922-2.5508-0.13281-0.035156-0.26562-0.066406-0.39844-0.10156-0.43359-0.13281-0.76562-0.38281-1-0.75-0.26562-0.33203-0.39844-0.71875-0.39844-1.1484v-4c-5.0312-1.8672-9.418-4.3516-13.148-7.4492-0.39844-0.30078-0.64844-0.66797-0.75-1.1016-0.10156-0.46484-0.050781-0.89844 0.14844-1.3008 0.16406-0.39844 0.46875-0.73437 0.89844-1 10.531-5.9336 21.766-10.102 33.699-12.5 0.26562-0.066406 0.55078-0.066406 0.85156 0 0.83594 0.16797 1.668 0.35156 2.5 0.55078 10.227 2.5391 19.945 6.3711 29.145 11.504z" fill-rule="evenodd" fill="#333333"></path></svg> 