<?xml version="1.0" encoding="UTF-8"?> <svg xmlns="http://www.w3.org/2000/svg" viewBox="0 0 50.00 50.00" data-guides="{&quot;vertical&quot;:[],&quot;horizontal&quot;:[]}"><defs></defs><path fill="#333333" stroke="none" fill-opacity="1" stroke-width="1" stroke-opacity="1" alignment-baseline="baseline" baseline-shift="baseline" fill-rule="evenodd" id="tSvg15f2a5f943b" title="Path 2" d="M45.078 25C45.078 36.082 36.082 45.078 25 45.078C13.918 45.078 4.922 36.082 4.922 25C4.922 13.918 13.918 4.922 25 4.922C36.082 4.922 45.078 13.918 45.078 25ZM27.8145 20.7481C30.7285 20.7481 33.6405 20.7285 36.5545 20.6895C36.7127 20.6895 36.7908 20.7285 36.8299 20.8867C38.1287 24.9023 37.5975 29.6857 34.7029 32.9142C32.4002 28.8595 30.117 24.8242 27.8145 20.7481ZM20.176 24.5274C18.6604 21.8692 17.1643 19.2519 15.6877 16.6133C18.5822 13.4239 22.6957 11.9864 26.9477 12.6172C24.684 16.5938 22.4399 20.5313 20.176 24.5274ZM13.266 29.4101C17.8324 29.5078 22.36 29.6074 26.9085 29.7051C25.5706 32.1855 24.1136 34.6465 22.7151 37.1076C22.637 37.2658 22.5569 37.3048 22.3812 37.2658C18.3265 36.3009 14.6252 33.4669 13.266 29.4101ZM22.006 28.9766C21.8087 28.9766 21.6525 28.9961 21.4943 28.9766C18.7384 28.918 15.9828 28.8594 13.2268 28.7988C13.0881 28.7988 13.0295 28.7598 12.9905 28.6211C11.8694 24.5273 12.5373 20.7676 15.0764 17.3611C15.1545 17.2439 15.1741 17.1833 15.2737 17.1248C17.5178 21.0623 19.762 25.0193 22.006 28.9766ZM29.9005 25.6699C31.3308 28.1829 32.7612 30.6959 34.1915 33.2089C34.2696 33.3671 34.2696 33.4452 34.1524 33.5624C31.4747 36.3183 28.2264 37.6366 24.4084 37.5195C24.133 37.5195 23.4826 37.4804 23.2463 37.3808C25.4514 33.4824 27.676 29.6053 29.9005 25.6699ZM36.514 20.0994C32.1234 20.1189 27.754 20.158 23.344 20.1775C24.7229 17.7556 26.0999 15.3357 27.4788 12.914C27.5373 12.7754 27.5959 12.7363 27.7541 12.7754C31.5725 13.7207 35.0566 16.3574 36.514 20.0994Z"></path></svg> 