<?xml version="1.0" encoding="UTF-8"?> <svg xmlns="http://www.w3.org/2000/svg" viewBox="0 0 100 100" fill-rule="evenodd"><path d="m26.684 63.199c-0.85156 0-1.543-0.69141-1.543-1.543s0.69141-1.543 1.543-1.543h20.129c0.85156 0 1.543 0.69141 1.543 1.543s-0.69141 1.543-1.543 1.543zm0-26.977c-0.85156 0-1.543-0.69141-1.543-1.543 0-0.85156 0.69141-1.543 1.543-1.543h31.09c0.85156 0 1.543 0.69141 1.543 1.543 0 0.85156-0.69141 1.543-1.543 1.543zm0 13.488c-0.85156 0-1.543-0.69141-1.543-1.543 0-0.85156 0.69141-1.543 1.543-1.543h31.09c0.85156 0 1.543 0.69141 1.543 1.543 0 0.85156-0.69141 1.543-1.543 1.543zm0-26.977c-0.85156 0-1.543-0.69141-1.543-1.543 0-0.85156 0.69141-1.543 1.543-1.543h31.09c0.85156 0 1.543 0.69141 1.543 1.543 0 0.85156-0.69141 1.543-1.543 1.543zm46.836-3.082v56.207c0 2.0859-0.85156 3.9805-2.2227 5.3516l-0.09375 0.085937c-1.3633 1.3203-3.2227 2.1367-5.2578 2.1367h-36.375v9.5781c0 1.2344 0.50781 2.3555 1.3164 3.168 0.8125 0.8125 1.9375 1.3164 3.168 1.3164h47.434c1.1992 0 2.293-0.47656 3.1367-1.2812 0.84375-0.84766 1.3516-1.9727 1.3516-3.2031v-68.871c0-1.2344-0.50391-2.3594-1.3164-3.1719s-1.9375-1.3164-3.1719-1.3164zm-7.5742-17.152h-47.434c-1.2305 0-2.3555 0.50781-3.168 1.3203-0.8125 0.80859-1.3164 1.9336-1.3164 3.168v68.871c0 1.2305 0.50781 2.3555 1.3164 3.168 0.8125 0.8125 1.9375 1.3203 3.168 1.3203h47.434c1.1992 0 2.293-0.47656 3.1367-1.2852 0.84375-0.84766 1.3516-1.9727 1.3516-3.2031v-68.871c0-1.2344-0.50391-2.3594-1.3164-3.1719s-1.9375-1.3164-3.1719-1.3164z"></path></svg> 