<?xml version="1.0" encoding="UTF-8"?> <svg xmlns="http://www.w3.org/2000/svg" viewBox="0 0 100 100" fill-rule="evenodd"><path d="m36.41 5.0781c5.2773 0 10.039 3.1797 12.059 8.0586 2.0195 4.875 0.90234 10.488-2.832 14.223-3.7305 3.7305-9.3438 4.8477-14.223 2.8281-4.875-2.0195-8.0547-6.7773-8.0547-12.059 0-3.4609 1.375-6.7812 3.8203-9.2266 2.4492-2.4492 5.7695-3.8242 9.2305-3.8242zm52.504 83.844c-4.4727-2.3945-9.5977-3.2773-14.613-2.5117s-9.6445 3.1367-13.199 6.7539v-39.953c0-0.45703-0.19922-0.89063-0.54687-1.1875 3.5234-3.8359 8.2227-6.3906 13.355-7.2617 5.1328-0.87109 10.414-0.011719 15.004 2.4453zm-30.938 4.2422c-3.5547-3.6172-8.1875-5.9883-13.199-6.7539-5.0156-0.76172-10.141 0.11719-14.613 2.5117v-41.715c4.5898-2.457 9.8672-3.3164 15.004-2.4453 5.1328 0.87109 9.832 3.4258 13.352 7.2617-0.34375 0.29687-0.54297 0.73047-0.54297 1.1875zm-21.004-24.734h15.758c0.86328 0 1.5625-0.70313 1.5625-1.5625 0-0.86328-0.69922-1.5625-1.5625-1.5625h-15.758c-0.86328 0-1.5625 0.69922-1.5625 1.5625 0 0.85937 0.69922 1.5625 1.5625 1.5625zm15.758-11.156h-15.758c-0.86328 0-1.5625 0.69922-1.5625 1.5625 0 0.86328 0.69922 1.5625 1.5625 1.5625h15.758c0.86328 0 1.5625-0.69922 1.5625-1.5625 0-0.86328-0.69922-1.5625-1.5625-1.5625zm29.375 0h-15.758c-0.86328 0-1.5625 0.69922-1.5625 1.5625 0 0.86328 0.69922 1.5625 1.5625 1.5625h15.758c0.86328 0 1.5625-0.69922 1.5625-1.5625 0-0.86328-0.69922-1.5625-1.5625-1.5625zm0 8.0312h-15.758c-0.86328 0-1.5625 0.69922-1.5625 1.5625 0 0.85937 0.69922 1.5625 1.5625 1.5625h15.758c0.86328 0 1.5625-0.70313 1.5625-1.5625 0-0.86328-0.69922-1.5625-1.5625-1.5625zm0 8.0312-15.758-0.003907c-0.86328 0-1.5625 0.69922-1.5625 1.5625s0.69922 1.5625 1.5625 1.5625h15.758c0.86328 0 1.5625-0.69922 1.5625-1.5625s-0.69922-1.5625-1.5625-1.5625zm-45.133 3.125h15.758v-0.003907c0.86328 0 1.5625-0.69922 1.5625-1.5625s-0.69922-1.5625-1.5625-1.5625h-15.758c-0.86328 0-1.5625 0.69922-1.5625 1.5625s0.69922 1.5625 1.5625 1.5625zm-12.816-23.25v41.711h31.152c-3.0977-2.9688-7.0547-4.8789-11.309-5.4648-4.25-0.58203-8.5781 0.19531-12.359 2.2188l-4.6016 2.4648v-40.93zm67.883 0v40.93l-4.6016-2.4648c-3.7812-2.0234-8.1094-2.8008-12.359-2.2188-4.2539 0.58594-8.2109 2.4961-11.309 5.4648h31.152v-41.711zm-47.652-21.008c-4.9492 2.8047-11.004 2.8047-15.953 0-6.3242 1.6641-11.977 5.2617-16.16 10.285-4.1875 5.0273-6.6992 11.234-7.1875 17.758-0.050782 0.60547 0.16016 1.207 0.57422 1.6523 0.41406 0.44531 0.99609 0.69531 1.6055 0.69531h13.766v-12.508h6.0078v-4.75l1.6484-0.88281c4.9297-2.6328 10.559-3.6484 16.094-2.9062 5.5391 0.74609 10.699 3.2148 14.758 7.0547 1.0703-1.0156 2.2227-1.9375 3.4453-2.7617-4.25-6.7344-10.895-11.609-18.598-13.637z" fill-rule="evenodd" fill="#333333"></path></svg> 