<?xml version="1.0" encoding="UTF-8"?> <svg xmlns="http://www.w3.org/2000/svg" viewBox="0 0 100 100" fill-rule="evenodd"><path d="m82.059 76.617c-7.6406 9.1953-19.168 15.051-32.059 15.051s-24.418-5.8555-32.059-15.051c1.9336-4.1172 4.6562-7.8555 8.0508-10.988 6.2773-5.7891 14.434-9.1133 22.969-9.3633 8.5352-0.25 16.875 2.5898 23.48 8 4.1172 3.375 7.3906 7.6016 9.6172 12.352z" fill="#333333"></path><path d="m86.09 70.84c-2.4961-4.3203-5.7656-8.1953-9.6914-11.41-4.9297-4.0391-10.684-6.8594-16.793-8.3086 4.2734-3.0156 7.0625-7.9922 7.0625-13.621 0-9.2031-7.4648-16.668-16.668-16.668s-16.668 7.4648-16.668 16.668c0 5.6289 2.793 10.605 7.0625 13.621-6.9141 1.6406-13.344 5.0312-18.637 9.9102-3.1211 2.8789-5.7578 6.1914-7.8477 9.8086-3.5469-6.1289-5.5781-13.246-5.5781-20.84 0-23.012 18.656-41.668 41.668-41.668s41.668 18.656 41.668 41.668c0 7.5938-2.0312 14.711-5.5781 20.84z" fill="#333333"></path><path d="m50 47.918c5.7539 0 10.418-4.6641 10.418-10.418s-4.6641-10.418-10.418-10.418-10.418 4.6641-10.418 10.418 4.6641 10.418 10.418 10.418z" fill="#333333"></path></svg> 