<?xml version="1.0" encoding="UTF-8"?> <svg xmlns="http://www.w3.org/2000/svg" viewBox="0 0 100 100" fill-rule="evenodd"><path d="m28.066 13.332h-0.24609v0.003907c-6.0234 0.10547-8.8984 3.9961-8.8984 8.6797v48.219c0 5.2734 3.0586 10.863 9.8281 10.883h1.5625v4.9102c0 0.48438 0.51562 0.78906 0.94141 0.55859l3.3516-1.8398c0.23828-0.12891 0.52734-0.12891 0.76562 0.003906l3.3008 1.832c0.42188 0.23438 0.9375-0.070312 0.9375-0.55078v-4.9102h37.328c2.2891 0 4.1445-1.8555 4.1445-4.1445v-59.496c0-2.2891-1.8555-4.1445-4.1445-4.1445zm14.625 10.703h21.301c0.81641 0 1.4766 0.66016 1.4766 1.4766 0 0.81641-0.66016 1.4766-1.4766 1.4766l-21.301 0.003907c-0.81641 0-1.4766-0.66016-1.4766-1.4766s0.66016-1.4766 1.4766-1.4766zm-2.8125 7.6523h26.926c0.81641 0 1.4766 0.66016 1.4766 1.4766 0 0.81641-0.66016 1.4766-1.4766 1.4766h-26.926c-0.81641 0-1.4766-0.66016-1.4766-1.4766 0-0.81641 0.66016-1.4766 1.4766-1.4766zm-10.156 33.074h44.469c1.0625 0 1.9258 0.86328 1.9258 1.9258v7.0898c0 1.0625-0.86328 1.9258-1.9258 1.9258l-34.586-0.003906v-5.8086c0-0.28906-0.23438-0.52344-0.52344-0.52344h-8.25c-0.28906 0-0.52344 0.23437-0.52344 0.52344v5.8125h-0.58984c-1.5859 0-4.6641-2.1797-4.6641-5.4688s2.8047-5.4688 4.6641-5.4688z" fill="#333333"></path></svg> 